<?xml version="1.0" encoding="us-ascii" standalone="no"?><svg xmlns="http://www.w3.org/2000/svg" xmlns:xlink="http://www.w3.org/1999/xlink" contentStyleType="text/css" height="2788px" preserveAspectRatio="none" style="width:1856px;height:2788px;background:#FFFFFF;" version="1.1" viewBox="0 0 1856 2788" width="1856px" zoomAndPan="magnify"><defs/><g><line style="stroke:#181818;stroke-width:1.0;stroke-dasharray:5.0,5.0;" x1="195" x2="195" y1="202.4375" y2="2586.2813"/><line style="stroke:#181818;stroke-width:1.0;stroke-dasharray:5.0,5.0;" x1="579" x2="579" y1="202.4375" y2="2586.2813"/><rect fill="#FFFFFF" height="1254.7031" style="stroke:#181818;stroke-width:2.0;" width="20" x="569" y="351.8438"/><line style="stroke:#181818;stroke-width:1.0;stroke-dasharray:5.0,5.0;" x1="979" x2="979" y1="202.4375" y2="2586.2813"/><rect fill="#FFFFFF" height="860.4844" style="stroke:#181818;stroke-width:2.0;" width="20" x="969" y="685.3594"/><rect fill="#FFFFFF" height="184.1094" style="stroke:#181818;stroke-width:2.0;" width="20" x="969" y="1876.6563"/><line style="stroke:#181818;stroke-width:1.0;stroke-dasharray:5.0,5.0;" x1="1363" x2="1363" y1="202.4375" y2="2586.2813"/><rect fill="#FFFFFF" height="315.4063" style="stroke:#181818;stroke-width:2.0;" width="20" x="1353" y="2076.7656"/><line style="stroke:#181818;stroke-width:1.0;stroke-dasharray:5.0,5.0;" x1="1763" x2="1763" y1="202.4375" y2="2586.2813"/><text fill="#000000" font-family="sans-serif" font-size="28" lengthAdjust="spacing" textLength="206" x="86" y="161.0664">&#1055;&#1086;&#1076;&#1088;&#1072;&#1079;&#1076;&#1077;&#1083;&#1077;&#1085;&#1080;&#1077;</text><text fill="#000000" font-family="sans-serif" font-size="28" lengthAdjust="spacing" textLength="196" x="91" y="196.2852">(&#1048;&#1089;&#1090;&#1086;&#1095;&#1085;&#1080;&#1082;, &#1048;&#1041;)</text><ellipse cx="195" cy="43" fill="#808080" rx="32" ry="32" style="stroke:#181818;stroke-width:1.0;"/><path d="M195,83 C203,83 209,83 217,75 C233,75 249,91 249,107 L249,115 C249,123 241,131 233,131 L157,131 C149,131 141,123 141,115 L141,107 C141,91 157,75 173,75 C181,83 187,83 195,83 " fill="#808080" style="stroke:#181818;stroke-width:1.0;"/><text fill="#000000" font-family="sans-serif" font-size="28" lengthAdjust="spacing" textLength="52" x="547" y="161.0664">&#1055;&#1058;&#1050;</text><text fill="#000000" font-family="sans-serif" font-size="28" lengthAdjust="spacing" textLength="160" x="493" y="196.2852">(&#1044;&#1080;&#1089;&#1087;&#1077;&#1090;&#1095;&#1077;&#1088;)</text><path d="M538,76 L538,124 M538,100 L572,100 " fill="none" style="stroke:#181818;stroke-width:1.0;"/><ellipse cx="596" cy="100" fill="#CD5C5C" rx="24" ry="24" style="stroke:#181818;stroke-width:1.0;"/><path d="M915,112 L1043,112 C1053,112 1053,157.2188 1053,157.2188 C1053,157.2188 1053,202.4375 1043,202.4375 L915,202.4375 C905,202.4375 905,157.2188 905,157.2188 C905,157.2188 905,112 915,112 " fill="#90EE90" style="stroke:#181818;stroke-width:1.0;"/><path d="M1043,112 C1033,112 1033,157.2188 1033,157.2188 C1033,202.4375 1043,202.4375 1043,202.4375 " fill="none" style="stroke:#181818;stroke-width:1.0;"/><text fill="#000000" font-family="sans-serif" font-size="28" lengthAdjust="spacing" textLength="86" x="926" y="151.0664">&#1041;&#1091;&#1092;&#1077;&#1088;</text><text fill="#000000" font-family="sans-serif" font-size="28" lengthAdjust="spacing" textLength="108" x="915" y="186.2852">(&#1044;1&#1054;&#1047;3)</text><text fill="#000000" font-family="sans-serif" font-size="28" lengthAdjust="spacing" textLength="140" x="1287" y="161.0664">&#1044;&#1080;&#1089;&#1087;&#1077;&#1090;&#1095;&#1077;&#1088;</text><text fill="#000000" font-family="sans-serif" font-size="28" lengthAdjust="spacing" textLength="184" x="1265" y="196.2852">(&#1055;&#1088;&#1080;&#1073;&#1086;&#1088;, &#1055;31)</text><ellipse cx="1363" cy="100" fill="#E2E2F0" rx="24" ry="24" style="stroke:#181818;stroke-width:1.0;"/><line style="stroke:#181818;stroke-width:1.0;" x1="1339" x2="1387" y1="128" y2="128"/><text fill="#000000" font-family="sans-serif" font-size="28" lengthAdjust="spacing" textLength="136" x="1689" y="161.0664">&#1056;&#1077;&#1079;&#1091;&#1083;&#1100;&#1090;&#1072;&#1090;</text><text fill="#000000" font-family="sans-serif" font-size="28" lengthAdjust="spacing" textLength="148" x="1683" y="196.2852">(&#1054;&#1056;1, &#1054;&#1044;1)</text><path d="M1727,60 C1727,40 1763,40 1763,40 C1763,40 1799,40 1799,60 L1799,112 C1799,132 1763,132 1763,132 C1763,132 1727,132 1727,112 L1727,60 " fill="#87CEEB" style="stroke:#181818;stroke-width:3.0;"/><path d="M1727,60 C1727,80 1763,80 1763,80 C1763,80 1799,80 1799,60 " fill="none" style="stroke:#181818;stroke-width:3.0;"/><text fill="#000000" font-family="sans-serif" font-size="28" lengthAdjust="spacing" textLength="206" x="86" y="2737.3477">&#1055;&#1086;&#1076;&#1088;&#1072;&#1079;&#1076;&#1077;&#1083;&#1077;&#1085;&#1080;&#1077;</text><text fill="#000000" font-family="sans-serif" font-size="28" lengthAdjust="spacing" textLength="196" x="91" y="2772.5664">(&#1048;&#1089;&#1090;&#1086;&#1095;&#1085;&#1080;&#1082;, &#1048;&#1041;)</text><ellipse cx="195" cy="2619.2813" fill="#808080" rx="32" ry="32" style="stroke:#181818;stroke-width:1.0;"/><path d="M195,2659.2813 C203,2659.2813 209,2659.2813 217,2651.2813 C233,2651.2813 249,2667.2813 249,2683.2813 L249,2691.2813 C249,2699.2813 241,2707.2813 233,2707.2813 L157,2707.2813 C149,2707.2813 141,2699.2813 141,2691.2813 L141,2683.2813 C141,2667.2813 157,2651.2813 173,2651.2813 C181,2659.2813 187,2659.2813 195,2659.2813 " fill="#808080" style="stroke:#181818;stroke-width:1.0;"/><text fill="#000000" font-family="sans-serif" font-size="28" lengthAdjust="spacing" textLength="52" x="547" y="2679.3477">&#1055;&#1058;&#1050;</text><text fill="#000000" font-family="sans-serif" font-size="28" lengthAdjust="spacing" textLength="160" x="493" y="2714.5664">(&#1044;&#1080;&#1089;&#1087;&#1077;&#1090;&#1095;&#1077;&#1088;)</text><path d="M538,2594.2813 L538,2642.2813 M538,2618.2813 L572,2618.2813 " fill="none" style="stroke:#181818;stroke-width:1.0;"/><ellipse cx="596" cy="2618.2813" fill="#CD5C5C" rx="24" ry="24" style="stroke:#181818;stroke-width:1.0;"/><path d="M915,2586.2813 L1043,2586.2813 C1053,2586.2813 1053,2631.5 1053,2631.5 C1053,2631.5 1053,2676.7188 1043,2676.7188 L915,2676.7188 C905,2676.7188 905,2631.5 905,2631.5 C905,2631.5 905,2586.2813 915,2586.2813 " fill="#90EE90" style="stroke:#181818;stroke-width:1.0;"/><path d="M1043,2586.2813 C1033,2586.2813 1033,2631.5 1033,2631.5 C1033,2676.7188 1043,2676.7188 1043,2676.7188 " fill="none" style="stroke:#181818;stroke-width:1.0;"/><text fill="#000000" font-family="sans-serif" font-size="28" lengthAdjust="spacing" textLength="86" x="926" y="2625.3477">&#1041;&#1091;&#1092;&#1077;&#1088;</text><text fill="#000000" font-family="sans-serif" font-size="28" lengthAdjust="spacing" textLength="108" x="915" y="2660.5664">(&#1044;1&#1054;&#1047;3)</text><text fill="#000000" font-family="sans-serif" font-size="28" lengthAdjust="spacing" textLength="140" x="1287" y="2679.3477">&#1044;&#1080;&#1089;&#1087;&#1077;&#1090;&#1095;&#1077;&#1088;</text><text fill="#000000" font-family="sans-serif" font-size="28" lengthAdjust="spacing" textLength="184" x="1265" y="2714.5664">(&#1055;&#1088;&#1080;&#1073;&#1086;&#1088;, &#1055;31)</text><ellipse cx="1363" cy="2618.2813" fill="#E2E2F0" rx="24" ry="24" style="stroke:#181818;stroke-width:1.0;"/><line style="stroke:#181818;stroke-width:1.0;" x1="1339" x2="1387" y1="2646.2813" y2="2646.2813"/><text fill="#000000" font-family="sans-serif" font-size="28" lengthAdjust="spacing" textLength="136" x="1689" y="2707.3477">&#1056;&#1077;&#1079;&#1091;&#1083;&#1100;&#1090;&#1072;&#1090;</text><text fill="#000000" font-family="sans-serif" font-size="28" lengthAdjust="spacing" textLength="148" x="1683" y="2742.5664">(&#1054;&#1056;1, &#1054;&#1044;1)</text><path d="M1727,2606.2813 C1727,2586.2813 1763,2586.2813 1763,2586.2813 C1763,2586.2813 1799,2586.2813 1799,2606.2813 L1799,2658.2813 C1799,2678.2813 1763,2678.2813 1763,2678.2813 C1763,2678.2813 1727,2678.2813 1727,2658.2813 L1727,2606.2813 " fill="#87CEEB" style="stroke:#181818;stroke-width:3.0;"/><path d="M1727,2606.2813 C1727,2626.2813 1763,2626.2813 1763,2626.2813 C1763,2626.2813 1799,2626.2813 1799,2606.2813 " fill="none" style="stroke:#181818;stroke-width:3.0;"/><rect fill="#EEEEEE" height="6" style="stroke:#EEEEEE;stroke-width:2.0;" width="1833" x="10" y="260.7891"/><line style="stroke:#000000;stroke-width:2.0;" x1="10" x2="1843" y1="260.7891" y2="260.7891"/><line style="stroke:#000000;stroke-width:2.0;" x1="10" x2="1843" y1="266.7891" y2="266.7891"/><rect fill="#EEEEEE" height="48.7031" style="stroke:#000000;stroke-width:4.0;" width="306" x="773.5" y="238.4375"/><text fill="#000000" font-family="sans-serif" font-size="26" font-weight="bold" lengthAdjust="spacing" textLength="270" x="785.5" y="273.4277">&#1047;&#1072;&#1087;&#1086;&#1083;&#1085;&#1077;&#1085;&#1080;&#1077; &#1073;&#1091;&#1092;&#1077;&#1088;&#1072;</text><polygon fill="#181818" points="545,343.8438,565,351.8438,545,359.8438,553,351.8438" style="stroke:#181818;stroke-width:2.0;"/><line style="stroke:#181818;stroke-width:2.0;" x1="195" x2="557" y1="351.8438" y2="351.8438"/><text fill="#000000" font-family="sans-serif" font-size="26" lengthAdjust="spacing" textLength="226" x="209" y="342.1309">&#1054;&#1090;&#1087;&#1088;&#1072;&#1074;&#1083;&#1103;&#1077;&#1090; &#1079;&#1072;&#1103;&#1074;&#1082;&#1091;</text><path d="M163,375.8438 L325,375.8438 L325,392.5469 L305,412.5469 L163,412.5469 L163,375.8438 " fill="#EEEEEE" style="stroke:#000000;stroke-width:3.0;"/><rect fill="none" height="117.4063" style="stroke:#000000;stroke-width:3.0;" width="528" x="163" y="375.8438"/><text fill="#000000" font-family="sans-serif" font-size="26" font-weight="bold" lengthAdjust="spacing" textLength="72" x="193" y="404.834">break</text><text fill="#000000" font-family="sans-serif" font-size="22" font-weight="bold" lengthAdjust="spacing" textLength="304" x="355" y="402.6816">[&#1080;&#1089;&#1090;&#1086;&#1095;&#1085;&#1080;&#1082; &#1086;&#1090;&#1079;&#1099;&#1074;&#1072;&#1077;&#1090; &#1079;&#1072;&#1103;&#1074;&#1082;&#1091;]</text><polygon fill="#181818" points="217,432.5469,197,440.5469,217,448.5469,209,440.5469" style="stroke:#181818;stroke-width:2.0;"/><line style="stroke:#181818;stroke-width:2.0;stroke-dasharray:2.0,2.0;" x1="205" x2="567" y1="440.5469" y2="440.5469"/><text fill="#000000" font-family="sans-serif" font-size="26" lengthAdjust="spacing" textLength="306" x="229" y="469.5371">&#1054;&#1090;&#1082;&#1072;&#1079; &#1074; &#1086;&#1073;&#1088;&#1072;&#1073;&#1086;&#1090;&#1082;&#1077; &#1079;&#1072;&#1103;&#1074;&#1082;&#1080;</text><line style="stroke:#181818;stroke-width:2.0;" x1="589" x2="673" y1="598.6563" y2="598.6563"/><line style="stroke:#181818;stroke-width:2.0;" x1="673" x2="673" y1="598.6563" y2="624.6563"/><line style="stroke:#181818;stroke-width:2.0;" x1="591" x2="673" y1="624.6563" y2="624.6563"/><polygon fill="#181818" points="611,616.6563,591,624.6563,611,632.6563,603,624.6563" style="stroke:#181818;stroke-width:2.0;"/><text fill="#000000" font-family="sans-serif" font-size="26" lengthAdjust="spacing" textLength="302" x="603" y="556.2402">&#1054;&#1087;&#1088;&#1077;&#1076;&#1077;&#1083;&#1077;&#1085;&#1080;&#1077; &#1087;&#1088;&#1080;&#1086;&#1088;&#1080;&#1090;&#1077;&#1090;&#1072;</text><text fill="#000000" font-family="sans-serif" font-size="26" lengthAdjust="spacing" textLength="244" x="603" y="588.9434">&#1079;&#1072;&#1103;&#1074;&#1082;&#1080; &#1087;&#1086; &#1080;&#1089;&#1090;&#1086;&#1095;&#1085;&#1080;&#1082;&#1091;</text><polygon fill="#181818" points="945,677.3594,965,685.3594,945,693.3594,953,685.3594" style="stroke:#181818;stroke-width:2.0;"/><line style="stroke:#181818;stroke-width:2.0;" x1="589" x2="957" y1="685.3594" y2="685.3594"/><text fill="#000000" font-family="sans-serif" font-size="26" lengthAdjust="spacing" textLength="206" x="603" y="675.6465">&#1055;&#1077;&#1088;&#1077;&#1076;&#1072;&#1095;&#1072; &#1079;&#1072;&#1103;&#1074;&#1082;&#1080;</text><line style="stroke:#181818;stroke-width:2.0;" x1="989" x2="1073" y1="746.0625" y2="746.0625"/><line style="stroke:#181818;stroke-width:2.0;" x1="1073" x2="1073" y1="746.0625" y2="772.0625"/><line style="stroke:#181818;stroke-width:2.0;" x1="991" x2="1073" y1="772.0625" y2="772.0625"/><polygon fill="#181818" points="1011,764.0625,991,772.0625,1011,780.0625,1003,772.0625" style="stroke:#181818;stroke-width:2.0;"/><text fill="#000000" font-family="sans-serif" font-size="26" lengthAdjust="spacing" textLength="310" x="1003" y="736.3496">&#1055;&#1088;&#1086;&#1074;&#1077;&#1088;&#1082;&#1072; &#1084;&#1077;&#1089;&#1090;&#1072; &#1074; &#1073;&#1091;&#1092;&#1077;&#1088;&#1077;</text><path d="M16,796.0625 L138,796.0625 L138,812.7656 L118,832.7656 L16,832.7656 L16,796.0625 " fill="#EEEEEE" style="stroke:#000000;stroke-width:3.0;"/><rect fill="none" height="891.1875" style="stroke:#000000;stroke-width:3.0;" width="1379" x="16" y="796.0625"/><text fill="#000000" font-family="sans-serif" font-size="26" font-weight="bold" lengthAdjust="spacing" textLength="32" x="46" y="825.0527">alt</text><text fill="#000000" font-family="sans-serif" font-size="22" font-weight="bold" lengthAdjust="spacing" textLength="204" x="168" y="822.9004">[&#1073;&#1091;&#1092;&#1077;&#1088; &#1089;&#1074;&#1086;&#1073;&#1086;&#1076;&#1077;&#1085;]</text><line style="stroke:#000000;stroke-width:2.0;stroke-dasharray:2.0,2.0;" x1="16" x2="1395" y1="1061.5781" y2="1061.5781"/><text fill="#000000" font-family="sans-serif" font-size="22" font-weight="bold" lengthAdjust="spacing" textLength="234" x="26" y="1088.416">[&#1073;&#1091;&#1092;&#1077;&#1088; &#1087;&#1077;&#1088;&#1077;&#1087;&#1086;&#1083;&#1085;&#1077;&#1085;]</text><polygon fill="#181818" points="611,852.7656,591,860.7656,611,868.7656,603,860.7656" style="stroke:#181818;stroke-width:2.0;"/><line style="stroke:#181818;stroke-width:2.0;stroke-dasharray:2.0,2.0;" x1="599" x2="967" y1="860.7656" y2="860.7656"/><text fill="#000000" font-family="sans-serif" font-size="26" lengthAdjust="spacing" textLength="332" x="623" y="889.7559">&#1055;&#1086;&#1076;&#1090;&#1074;&#1077;&#1088;&#1078;&#1076;&#1077;&#1085;&#1080;&#1077; &#1087;&#1086;&#1089;&#1090;&#1072;&#1085;&#1086;&#1074;&#1082;&#1080;</text><text fill="#000000" font-family="sans-serif" font-size="26" lengthAdjust="spacing" textLength="210" x="623" y="922.459">&#1079;&#1072;&#1103;&#1074;&#1082;&#1080; &#1074; &#1086;&#1095;&#1077;&#1088;&#1077;&#1076;&#1100;</text><polygon fill="#181818" points="217,946.1719,197,954.1719,217,962.1719,209,954.1719" style="stroke:#181818;stroke-width:2.0;"/><line style="stroke:#181818;stroke-width:2.0;stroke-dasharray:2.0,2.0;" x1="205" x2="567" y1="954.1719" y2="954.1719"/><text fill="#000000" font-family="sans-serif" font-size="26" lengthAdjust="spacing" textLength="306" x="229" y="983.1621">&#1055;&#1086;&#1076;&#1090;&#1074;&#1077;&#1088;&#1078;&#1076;&#1077;&#1085;&#1080;&#1077; &#1087;&#1088;&#1080;&#1085;&#1103;&#1090;&#1080;&#1103;</text><text fill="#000000" font-family="sans-serif" font-size="26" lengthAdjust="spacing" textLength="230" x="229" y="1015.8652">&#1079;&#1072;&#1103;&#1074;&#1082;&#1080; &#1074; &#1086;&#1073;&#1088;&#1072;&#1073;&#1086;&#1090;&#1082;&#1091;</text><line style="stroke:#181818;stroke-width:2.0;" x1="989" x2="1073" y1="1180.6563" y2="1180.6563"/><line style="stroke:#181818;stroke-width:2.0;" x1="1073" x2="1073" y1="1180.6563" y2="1206.6563"/><line style="stroke:#181818;stroke-width:2.0;" x1="991" x2="1073" y1="1206.6563" y2="1206.6563"/><polygon fill="#181818" points="1011,1198.6563,991,1206.6563,1011,1214.6563,1003,1206.6563" style="stroke:#181818;stroke-width:2.0;"/><text fill="#000000" font-family="sans-serif" font-size="26" lengthAdjust="spacing" textLength="346" x="1003" y="1138.2402">&#1055;&#1086;&#1080;&#1089;&#1082; &#1079;&#1072;&#1103;&#1074;&#1082;&#1080; &#1089; &#1085;&#1072;&#1080;&#1084;&#1077;&#1085;&#1100;&#1096;&#1080;&#1084;</text><text fill="#000000" font-family="sans-serif" font-size="26" lengthAdjust="spacing" textLength="150" x="1003" y="1170.9434">&#1087;&#1088;&#1080;&#1086;&#1088;&#1080;&#1090;&#1077;&#1090;&#1086;&#1084;</text><path d="M54,1230.6563 L176,1230.6563 L176,1247.3594 L156,1267.3594 L54,1267.3594 L54,1230.6563 " fill="#EEEEEE" style="stroke:#000000;stroke-width:3.0;"/><rect fill="none" height="428.5938" style="stroke:#000000;stroke-width:3.0;" width="1031" x="54" y="1230.6563"/><text fill="#000000" font-family="sans-serif" font-size="26" font-weight="bold" lengthAdjust="spacing" textLength="32" x="84" y="1259.6465">alt</text><text fill="#000000" font-family="sans-serif" font-size="22" font-weight="bold" lengthAdjust="spacing" textLength="402" x="206" y="1257.4941">[&#1087;&#1088;&#1080;&#1086;&#1088;&#1080;&#1090;&#1077;&#1090; &#1074;&#1093;&#1086;&#1076;&#1103;&#1097;&#1077;&#1081; &#1079;&#1072;&#1103;&#1074;&#1082;&#1080; &#1074;&#1099;&#1096;&#1077;]</text><line style="stroke:#000000;stroke-width:2.0;stroke-dasharray:2.0,2.0;" x1="54" x2="1085" y1="1496.1719" y2="1496.1719"/><text fill="#000000" font-family="sans-serif" font-size="22" font-weight="bold" lengthAdjust="spacing" textLength="398" x="64" y="1523.0098">[&#1087;&#1088;&#1080;&#1086;&#1088;&#1080;&#1090;&#1077;&#1090; &#1074;&#1093;&#1086;&#1076;&#1103;&#1097;&#1077;&#1081; &#1079;&#1072;&#1103;&#1074;&#1082;&#1080; &#1085;&#1080;&#1078;&#1077;]</text><polygon fill="#181818" points="611,1287.3594,591,1295.3594,611,1303.3594,603,1295.3594" style="stroke:#181818;stroke-width:2.0;"/><line style="stroke:#181818;stroke-width:2.0;stroke-dasharray:2.0,2.0;" x1="599" x2="967" y1="1295.3594" y2="1295.3594"/><text fill="#000000" font-family="sans-serif" font-size="26" lengthAdjust="spacing" textLength="288" x="623" y="1324.3496">&#1055;&#1086;&#1076;&#1090;&#1074;&#1077;&#1088;&#1078;&#1076;&#1077;&#1085;&#1080;&#1077; &#1079;&#1072;&#1084;&#1077;&#1085;&#1099;</text><text fill="#000000" font-family="sans-serif" font-size="26" lengthAdjust="spacing" textLength="210" x="623" y="1357.0527">&#1079;&#1072;&#1103;&#1074;&#1082;&#1080; &#1074; &#1086;&#1095;&#1077;&#1088;&#1077;&#1076;&#1080;</text><polygon fill="#181818" points="32,1450.1719,12,1458.1719,32,1466.1719,24,1458.1719" style="stroke:#181818;stroke-width:2.0;"/><line style="stroke:#181818;stroke-width:2.0;stroke-dasharray:2.0,2.0;" x1="20" x2="567" y1="1458.1719" y2="1458.1719"/><text fill="#000000" font-family="sans-serif" font-size="26" lengthAdjust="spacing" textLength="290" x="44" y="1415.7559">&#1059;&#1074;&#1077;&#1076;&#1086;&#1084;&#1083;&#1077;&#1085;&#1080;&#1077; &#1080;&#1089;&#1090;&#1086;&#1095;&#1085;&#1080;&#1082;&#1072;</text><text fill="#000000" font-family="sans-serif" font-size="26" lengthAdjust="spacing" textLength="314" x="44" y="1448.459">&#1074; &#1086;&#1090;&#1082;&#1072;&#1079;&#1077; &#1086;&#1073;&#1088;&#1072;&#1073;&#1086;&#1090;&#1082;&#1080; &#1079;&#1072;&#1103;&#1074;&#1082;&#1080;</text><polygon fill="#181818" points="611,1537.8438,591,1545.8438,611,1553.8438,603,1545.8438" style="stroke:#181818;stroke-width:2.0;"/><line style="stroke:#181818;stroke-width:2.0;stroke-dasharray:2.0,2.0;" x1="599" x2="967" y1="1545.8438" y2="1545.8438"/><text fill="#000000" font-family="sans-serif" font-size="26" lengthAdjust="spacing" textLength="232" x="623" y="1574.834">&#1054;&#1090;&#1082;&#1072;&#1079; &#1074; &#1087;&#1086;&#1089;&#1090;&#1072;&#1085;&#1086;&#1074;&#1082;&#1077;</text><polygon fill="#181818" points="217,1598.5469,197,1606.5469,217,1614.5469,209,1606.5469" style="stroke:#181818;stroke-width:2.0;"/><line style="stroke:#181818;stroke-width:2.0;stroke-dasharray:2.0,2.0;" x1="205" x2="567" y1="1606.5469" y2="1606.5469"/><text fill="#000000" font-family="sans-serif" font-size="26" lengthAdjust="spacing" textLength="306" x="229" y="1635.5371">&#1054;&#1090;&#1082;&#1072;&#1079; &#1074; &#1086;&#1073;&#1088;&#1072;&#1073;&#1086;&#1090;&#1082;&#1077; &#1079;&#1072;&#1103;&#1074;&#1082;&#1080;</text><rect fill="#EEEEEE" height="6" style="stroke:#EEEEEE;stroke-width:2.0;" width="1833" x="10" y="1757.6016"/><line style="stroke:#000000;stroke-width:2.0;" x1="10" x2="1843" y1="1757.6016" y2="1757.6016"/><line style="stroke:#000000;stroke-width:2.0;" x1="10" x2="1843" y1="1763.6016" y2="1763.6016"/><rect fill="#EEEEEE" height="48.7031" style="stroke:#000000;stroke-width:4.0;" width="278" x="787.5" y="1735.25"/><text fill="#000000" font-family="sans-serif" font-size="26" font-weight="bold" lengthAdjust="spacing" textLength="242" x="799.5" y="1770.2402">&#1054;&#1073;&#1088;&#1072;&#1073;&#1086;&#1090;&#1082;&#1072; &#1079;&#1072;&#1103;&#1074;&#1086;&#1082;</text><path d="M54,1811.9531 L200,1811.9531 L200,1828.6563 L180,1848.6563 L54,1848.6563 L54,1811.9531 " fill="#EEEEEE" style="stroke:#000000;stroke-width:3.0;"/><rect fill="none" height="726.3281" style="stroke:#000000;stroke-width:3.0;" width="1741" x="54" y="1811.9531"/><text fill="#000000" font-family="sans-serif" font-size="26" font-weight="bold" lengthAdjust="spacing" textLength="56" x="84" y="1840.9434">loop</text><text fill="#000000" font-family="sans-serif" font-size="22" font-weight="bold" lengthAdjust="spacing" textLength="212" x="230" y="1838.791">[&#1086;&#1073;&#1088;&#1072;&#1073;&#1086;&#1090;&#1082;&#1072; &#1079;&#1072;&#1103;&#1074;&#1086;&#1082;]</text><polygon fill="#181818" points="1011,1868.6563,991,1876.6563,1011,1884.6563,1003,1876.6563" style="stroke:#181818;stroke-width:2.0;"/><line style="stroke:#181818;stroke-width:2.0;" x1="999" x2="1361" y1="1876.6563" y2="1876.6563"/><text fill="#000000" font-family="sans-serif" font-size="26" lengthAdjust="spacing" textLength="260" x="1023" y="1905.6465">&#1047;&#1072;&#1087;&#1088;&#1086;&#1089; &#1087;&#1072;&#1082;&#1077;&#1090;&#1072; &#1079;&#1072;&#1103;&#1074;&#1086;&#1082;</text><line style="stroke:#181818;stroke-width:2.0;" x1="989" x2="1073" y1="1974.0625" y2="1974.0625"/><line style="stroke:#181818;stroke-width:2.0;" x1="1073" x2="1073" y1="1974.0625" y2="2000.0625"/><line style="stroke:#181818;stroke-width:2.0;" x1="991" x2="1073" y1="2000.0625" y2="2000.0625"/><polygon fill="#181818" points="1011,1992.0625,991,2000.0625,1011,2008.0625,1003,2000.0625" style="stroke:#181818;stroke-width:2.0;"/><text fill="#000000" font-family="sans-serif" font-size="26" lengthAdjust="spacing" textLength="336" x="1003" y="1964.3496">&#1055;&#1086;&#1080;&#1089;&#1082; &#1087;&#1088;&#1080;&#1086;&#1088;&#1080;&#1090;&#1077;&#1090;&#1085;&#1086;&#1075;&#1086; &#1087;&#1072;&#1082;&#1077;&#1090;&#1072;</text><polygon fill="#181818" points="1339,2052.7656,1359,2060.7656,1339,2068.7656,1347,2060.7656" style="stroke:#181818;stroke-width:2.0;"/><line style="stroke:#181818;stroke-width:2.0;stroke-dasharray:2.0,2.0;" x1="989" x2="1351" y1="2060.7656" y2="2060.7656"/><text fill="#000000" font-family="sans-serif" font-size="26" lengthAdjust="spacing" textLength="270" x="1003" y="2051.0527">&#1042;&#1086;&#1079;&#1074;&#1088;&#1072;&#1090; &#1087;&#1072;&#1082;&#1077;&#1090;&#1072; &#1079;&#1072;&#1103;&#1074;&#1086;&#1082;</text><line style="stroke:#181818;stroke-width:2.0;" x1="1373" x2="1457" y1="2121.4688" y2="2121.4688"/><line style="stroke:#181818;stroke-width:2.0;" x1="1457" x2="1457" y1="2121.4688" y2="2147.4688"/><line style="stroke:#181818;stroke-width:2.0;" x1="1375" x2="1457" y1="2147.4688" y2="2147.4688"/><polygon fill="#181818" points="1395,2139.4688,1375,2147.4688,1395,2155.4688,1387,2147.4688" style="stroke:#181818;stroke-width:2.0;"/><text fill="#000000" font-family="sans-serif" font-size="26" lengthAdjust="spacing" textLength="334" x="1387" y="2111.7559">&#1054;&#1073;&#1088;&#1072;&#1073;&#1086;&#1090;&#1082;&#1072; &#1079;&#1072;&#1103;&#1074;&#1086;&#1082; &#1080;&#1079; &#1087;&#1072;&#1082;&#1077;&#1090;&#1072;</text><polygon fill="#181818" points="1739,2360.1719,1759,2368.1719,1739,2376.1719,1747,2368.1719" style="stroke:#181818;stroke-width:2.0;"/><line style="stroke:#181818;stroke-width:2.0;" x1="1373" x2="1751" y1="2368.1719" y2="2368.1719"/><text fill="#000000" font-family="sans-serif" font-size="26" lengthAdjust="spacing" textLength="352" x="1387" y="2358.459">&#1047;&#1072;&#1087;&#1080;&#1089;&#1100; &#1088;&#1077;&#1079;&#1091;&#1083;&#1100;&#1090;&#1072;&#1090;&#1072; &#1086;&#1073;&#1088;&#1072;&#1073;&#1086;&#1090;&#1082;&#1080;</text><polygon fill="#181818" points="601,2384.1719,581,2392.1719,601,2400.1719,593,2392.1719" style="stroke:#181818;stroke-width:2.0;"/><line style="stroke:#181818;stroke-width:2.0;stroke-dasharray:2.0,2.0;" x1="589" x2="1351" y1="2392.1719" y2="2392.1719"/><text fill="#000000" font-family="sans-serif" font-size="26" lengthAdjust="spacing" textLength="200" x="613" y="2421.1621">&#1047;&#1072;&#1082;&#1088;&#1099;&#1090;&#1080;&#1077; &#1079;&#1072;&#1103;&#1074;&#1082;&#1080;</text><polygon fill="#181818" points="217,2444.875,197,2452.875,217,2460.875,209,2452.875" style="stroke:#181818;stroke-width:2.0;"/><line style="stroke:#181818;stroke-width:2.0;stroke-dasharray:2.0,2.0;" x1="205" x2="577" y1="2452.875" y2="2452.875"/><text fill="#000000" font-family="sans-serif" font-size="26" lengthAdjust="spacing" textLength="336" x="229" y="2481.8652">&#1059;&#1074;&#1077;&#1076;&#1086;&#1084;&#1083;&#1077;&#1085;&#1080;&#1077; &#1086; &#1074;&#1099;&#1087;&#1086;&#1083;&#1085;&#1077;&#1085;&#1080;&#1080;</text><text fill="#000000" font-family="sans-serif" font-size="26" lengthAdjust="spacing" textLength="80" x="229" y="2514.5684">&#1079;&#1072;&#1103;&#1074;&#1082;&#1080;</text><!--SRC=[bLN1JXfH55qFN_4gcpQMfDPDOwg9RaoJTgDRDuCyhG5dwCmGGyC2iKtRQ49iccYwGDF-m4X5A2hymdr_r7FV6t2OGPAIG8QPTyyzzznpxrXFofwzks-BGBeVHU1LP2PZ-SKzfsnxzhvOtGvSRpEebgIm3wJlxiluqmtfbrt7b- -axzkxSasMt8DLptCF393bRzi8V0b4ct64PStH1GteMjKff2vTKuTkyRsd7dMsdATqhWvLWmRgYxxLVoxed4wVpLcsBtotucrBaLttx6h6ohiLfs1xLGtuYtvoy0_ggKCQKaSr0D1HTGIQ3yBBGL5atpY5FTlPa8MCzQ4YAz9YGgVgI7tYunfZWLfqjZYEvD1yPMT7UYBxTc_tVR3kIUbaBEa4Uq6LmrDP6UO21VRe2fNKKSF5ue861DQ1wnMbbx4ATc3dRLy2u182TDKHtQeJr1wg1WEqw781aIqGYhWWk90NsSrYTQsacxIyBEWCCWuXw2tqYcGKT3KgY4Anl8mkQEMit0gBC3-_131g8TLGTw6Dn4rcBz2G49TjwgiZAEn9koYuk7X712uRe7kCO-6Kg56orxaSPrkAKlMvtOBQ20SzJdkbWVhCTmn0FHOMpK4aI1h2J1SWccrdqZ52t-onok3PO3eKRZbnGC7ofAfWfkCSfhsi2wpKYRA4E1ecg9c33o5S73TwW0CSr-U8Ernohb1N-z2A3cQW5CJk2BYcpNBmF7154CzmOkr66Q9nQKGfRipHg7WKf5FXni2GJ1RFWXjNSbNgP6g3PgNG-jwh9XxtL7CQ_6G_MLbPycMyK3qSJ23cL119owcPy3Jr9vI7KW9H8PZSSIpcv2jVWqsw_mEw0xQMElKGXDLdNMnJVGFINv4eHnq36PsQrecPEW4cudOykmNi8_DvQ815lnaJ3q4-xkw4QxMtso8Q7DwVdVGyzHAcZRhntrfmnflfMkHoIycfJbjHHqvwZUF-TnsOVS0_Pk6r4kTZCpg0RR3kCbR9TSjfvCcJ3_u3EyjiPRqQpKhbgMRN3V6dR_RAO-6v5MjiaGa7fxt9slpXTHI3ZIC1oZ39vVGw-expNVIfpc-5cMHCc5vdvj8i-TbYWLqtoQLMU_MYLfj4BEJr3ewaqQuy4ThE4wyjXa-vSRpKj0b6rOrqxgiwHgundg5OtoFhnCVaqJaPwD5Dl0WJkr2Rw1y0]--></g></svg>