<?xml version="1.0" encoding="us-ascii" standalone="no"?><svg xmlns="http://www.w3.org/2000/svg" xmlns:xlink="http://www.w3.org/1999/xlink" contentStyleType="text/css" height="2372px" preserveAspectRatio="none" style="width:1844px;height:2372px;background:#FFFFFF;" version="1.1" viewBox="0 0 1844 2372" width="1844px" zoomAndPan="magnify"><defs/><g><line style="stroke:#181818;stroke-width:1.0;stroke-dasharray:5.0,5.0;" x1="195" x2="195" y1="202.4375" y2="2170.0625"/><line style="stroke:#181818;stroke-width:1.0;stroke-dasharray:5.0,5.0;" x1="579" x2="579" y1="202.4375" y2="2170.0625"/><rect fill="#FFFFFF" height="1139.2969" style="stroke:#181818;stroke-width:2.0;" width="20" x="569" y="263.1406"/><line style="stroke:#181818;stroke-width:1.0;stroke-dasharray:5.0,5.0;" x1="979" x2="979" y1="202.4375" y2="2170.0625"/><rect fill="#FFFFFF" height="743.0781" style="stroke:#181818;stroke-width:2.0;" width="20" x="969" y="596.6563"/><rect fill="#FFFFFF" height="184.1094" style="stroke:#181818;stroke-width:2.0;" width="20" x="969" y="1521.1406"/><line style="stroke:#181818;stroke-width:1.0;stroke-dasharray:5.0,5.0;" x1="1363" x2="1363" y1="202.4375" y2="2170.0625"/><rect fill="#FFFFFF" height="315.4063" style="stroke:#181818;stroke-width:2.0;" width="20" x="1353" y="1721.25"/><line style="stroke:#181818;stroke-width:1.0;stroke-dasharray:5.0,5.0;" x1="1763" x2="1763" y1="202.4375" y2="2170.0625"/><text fill="#000000" font-family="sans-serif" font-size="28" lengthAdjust="spacing" textLength="206" x="86" y="161.0664">&#1055;&#1086;&#1076;&#1088;&#1072;&#1079;&#1076;&#1077;&#1083;&#1077;&#1085;&#1080;&#1077;</text><text fill="#000000" font-family="sans-serif" font-size="28" lengthAdjust="spacing" textLength="196" x="91" y="196.2852">(&#1048;&#1089;&#1090;&#1086;&#1095;&#1085;&#1080;&#1082;, &#1048;&#1041;)</text><ellipse cx="195" cy="43" fill="#808080" rx="32" ry="32" style="stroke:#181818;stroke-width:1.0;"/><path d="M195,83 C203,83 209,83 217,75 C233,75 249,91 249,107 L249,115 C249,123 241,131 233,131 L157,131 C149,131 141,123 141,115 L141,107 C141,91 157,75 173,75 C181,83 187,83 195,83 " fill="#808080" style="stroke:#181818;stroke-width:1.0;"/><text fill="#000000" font-family="sans-serif" font-size="28" lengthAdjust="spacing" textLength="52" x="547" y="161.0664">&#1055;&#1058;&#1050;</text><text fill="#000000" font-family="sans-serif" font-size="28" lengthAdjust="spacing" textLength="160" x="493" y="196.2852">(&#1044;&#1080;&#1089;&#1087;&#1077;&#1090;&#1095;&#1077;&#1088;)</text><path d="M538,76 L538,124 M538,100 L572,100 " fill="none" style="stroke:#181818;stroke-width:1.0;"/><ellipse cx="596" cy="100" fill="#CD5C5C" rx="24" ry="24" style="stroke:#181818;stroke-width:1.0;"/><path d="M915,112 L1043,112 C1053,112 1053,157.2188 1053,157.2188 C1053,157.2188 1053,202.4375 1043,202.4375 L915,202.4375 C905,202.4375 905,157.2188 905,157.2188 C905,157.2188 905,112 915,112 " fill="#90EE90" style="stroke:#181818;stroke-width:1.0;"/><path d="M1043,112 C1033,112 1033,157.2188 1033,157.2188 C1033,202.4375 1043,202.4375 1043,202.4375 " fill="none" style="stroke:#181818;stroke-width:1.0;"/><text fill="#000000" font-family="sans-serif" font-size="28" lengthAdjust="spacing" textLength="86" x="926" y="151.0664">&#1041;&#1091;&#1092;&#1077;&#1088;</text><text fill="#000000" font-family="sans-serif" font-size="28" lengthAdjust="spacing" textLength="108" x="915" y="186.2852">(&#1044;1&#1054;&#1047;3)</text><text fill="#000000" font-family="sans-serif" font-size="28" lengthAdjust="spacing" textLength="140" x="1287" y="161.0664">&#1044;&#1080;&#1089;&#1087;&#1077;&#1090;&#1095;&#1077;&#1088;</text><text fill="#000000" font-family="sans-serif" font-size="28" lengthAdjust="spacing" textLength="184" x="1265" y="196.2852">(&#1055;&#1088;&#1080;&#1073;&#1086;&#1088;, &#1055;31)</text><ellipse cx="1363" cy="100" fill="#E2E2F0" rx="24" ry="24" style="stroke:#181818;stroke-width:1.0;"/><line style="stroke:#181818;stroke-width:1.0;" x1="1339" x2="1387" y1="128" y2="128"/><text fill="#000000" font-family="sans-serif" font-size="28" lengthAdjust="spacing" textLength="136" x="1689" y="161.0664">&#1056;&#1077;&#1079;&#1091;&#1083;&#1100;&#1090;&#1072;&#1090;</text><text fill="#000000" font-family="sans-serif" font-size="28" lengthAdjust="spacing" textLength="148" x="1683" y="196.2852">(&#1054;&#1056;1, &#1054;&#1044;1)</text><path d="M1727,60 C1727,40 1763,40 1763,40 C1763,40 1799,40 1799,60 L1799,112 C1799,132 1763,132 1763,132 C1763,132 1727,132 1727,112 L1727,60 " fill="#87CEEB" style="stroke:#181818;stroke-width:3.0;"/><path d="M1727,60 C1727,80 1763,80 1763,80 C1763,80 1799,80 1799,60 " fill="none" style="stroke:#181818;stroke-width:3.0;"/><text fill="#000000" font-family="sans-serif" font-size="28" lengthAdjust="spacing" textLength="206" x="86" y="2321.1289">&#1055;&#1086;&#1076;&#1088;&#1072;&#1079;&#1076;&#1077;&#1083;&#1077;&#1085;&#1080;&#1077;</text><text fill="#000000" font-family="sans-serif" font-size="28" lengthAdjust="spacing" textLength="196" x="91" y="2356.3477">(&#1048;&#1089;&#1090;&#1086;&#1095;&#1085;&#1080;&#1082;, &#1048;&#1041;)</text><ellipse cx="195" cy="2203.0625" fill="#808080" rx="32" ry="32" style="stroke:#181818;stroke-width:1.0;"/><path d="M195,2243.0625 C203,2243.0625 209,2243.0625 217,2235.0625 C233,2235.0625 249,2251.0625 249,2267.0625 L249,2275.0625 C249,2283.0625 241,2291.0625 233,2291.0625 L157,2291.0625 C149,2291.0625 141,2283.0625 141,2275.0625 L141,2267.0625 C141,2251.0625 157,2235.0625 173,2235.0625 C181,2243.0625 187,2243.0625 195,2243.0625 " fill="#808080" style="stroke:#181818;stroke-width:1.0;"/><text fill="#000000" font-family="sans-serif" font-size="28" lengthAdjust="spacing" textLength="52" x="547" y="2263.1289">&#1055;&#1058;&#1050;</text><text fill="#000000" font-family="sans-serif" font-size="28" lengthAdjust="spacing" textLength="160" x="493" y="2298.3477">(&#1044;&#1080;&#1089;&#1087;&#1077;&#1090;&#1095;&#1077;&#1088;)</text><path d="M538,2178.0625 L538,2226.0625 M538,2202.0625 L572,2202.0625 " fill="none" style="stroke:#181818;stroke-width:1.0;"/><ellipse cx="596" cy="2202.0625" fill="#CD5C5C" rx="24" ry="24" style="stroke:#181818;stroke-width:1.0;"/><path d="M915,2170.0625 L1043,2170.0625 C1053,2170.0625 1053,2215.2813 1053,2215.2813 C1053,2215.2813 1053,2260.5 1043,2260.5 L915,2260.5 C905,2260.5 905,2215.2813 905,2215.2813 C905,2215.2813 905,2170.0625 915,2170.0625 " fill="#90EE90" style="stroke:#181818;stroke-width:1.0;"/><path d="M1043,2170.0625 C1033,2170.0625 1033,2215.2813 1033,2215.2813 C1033,2260.5 1043,2260.5 1043,2260.5 " fill="none" style="stroke:#181818;stroke-width:1.0;"/><text fill="#000000" font-family="sans-serif" font-size="28" lengthAdjust="spacing" textLength="86" x="926" y="2209.1289">&#1041;&#1091;&#1092;&#1077;&#1088;</text><text fill="#000000" font-family="sans-serif" font-size="28" lengthAdjust="spacing" textLength="108" x="915" y="2244.3477">(&#1044;1&#1054;&#1047;3)</text><text fill="#000000" font-family="sans-serif" font-size="28" lengthAdjust="spacing" textLength="140" x="1287" y="2263.1289">&#1044;&#1080;&#1089;&#1087;&#1077;&#1090;&#1095;&#1077;&#1088;</text><text fill="#000000" font-family="sans-serif" font-size="28" lengthAdjust="spacing" textLength="184" x="1265" y="2298.3477">(&#1055;&#1088;&#1080;&#1073;&#1086;&#1088;, &#1055;31)</text><ellipse cx="1363" cy="2202.0625" fill="#E2E2F0" rx="24" ry="24" style="stroke:#181818;stroke-width:1.0;"/><line style="stroke:#181818;stroke-width:1.0;" x1="1339" x2="1387" y1="2230.0625" y2="2230.0625"/><text fill="#000000" font-family="sans-serif" font-size="28" lengthAdjust="spacing" textLength="136" x="1689" y="2291.1289">&#1056;&#1077;&#1079;&#1091;&#1083;&#1100;&#1090;&#1072;&#1090;</text><text fill="#000000" font-family="sans-serif" font-size="28" lengthAdjust="spacing" textLength="148" x="1683" y="2326.3477">(&#1054;&#1056;1, &#1054;&#1044;1)</text><path d="M1727,2190.0625 C1727,2170.0625 1763,2170.0625 1763,2170.0625 C1763,2170.0625 1799,2170.0625 1799,2190.0625 L1799,2242.0625 C1799,2262.0625 1763,2262.0625 1763,2262.0625 C1763,2262.0625 1727,2262.0625 1727,2242.0625 L1727,2190.0625 " fill="#87CEEB" style="stroke:#181818;stroke-width:3.0;"/><path d="M1727,2190.0625 C1727,2210.0625 1763,2210.0625 1763,2210.0625 C1763,2210.0625 1799,2210.0625 1799,2190.0625 " fill="none" style="stroke:#181818;stroke-width:3.0;"/><polygon fill="#181818" points="545,255.1406,565,263.1406,545,271.1406,553,263.1406" style="stroke:#181818;stroke-width:2.0;"/><line style="stroke:#181818;stroke-width:2.0;" x1="195" x2="557" y1="263.1406" y2="263.1406"/><text fill="#000000" font-family="sans-serif" font-size="26" lengthAdjust="spacing" textLength="226" x="209" y="253.4277">&#1054;&#1090;&#1087;&#1088;&#1072;&#1074;&#1083;&#1103;&#1077;&#1090; &#1079;&#1072;&#1103;&#1074;&#1082;&#1091;</text><path d="M163,287.1406 L325,287.1406 L325,303.8438 L305,323.8438 L163,323.8438 L163,287.1406 " fill="#EEEEEE" style="stroke:#000000;stroke-width:3.0;"/><rect fill="none" height="117.4063" style="stroke:#000000;stroke-width:3.0;" width="528" x="163" y="287.1406"/><text fill="#000000" font-family="sans-serif" font-size="26" font-weight="bold" lengthAdjust="spacing" textLength="72" x="193" y="316.1309">break</text><text fill="#000000" font-family="sans-serif" font-size="22" font-weight="bold" lengthAdjust="spacing" textLength="304" x="355" y="313.9785">[&#1080;&#1089;&#1090;&#1086;&#1095;&#1085;&#1080;&#1082; &#1086;&#1090;&#1079;&#1099;&#1074;&#1072;&#1077;&#1090; &#1079;&#1072;&#1103;&#1074;&#1082;&#1091;]</text><polygon fill="#181818" points="217,343.8438,197,351.8438,217,359.8438,209,351.8438" style="stroke:#181818;stroke-width:2.0;"/><line style="stroke:#181818;stroke-width:2.0;stroke-dasharray:2.0,2.0;" x1="205" x2="567" y1="351.8438" y2="351.8438"/><text fill="#000000" font-family="sans-serif" font-size="26" lengthAdjust="spacing" textLength="306" x="229" y="380.834">&#1054;&#1090;&#1082;&#1072;&#1079; &#1074; &#1086;&#1073;&#1088;&#1072;&#1073;&#1086;&#1090;&#1082;&#1077; &#1079;&#1072;&#1103;&#1074;&#1082;&#1080;</text><line style="stroke:#181818;stroke-width:2.0;" x1="589" x2="673" y1="509.9531" y2="509.9531"/><line style="stroke:#181818;stroke-width:2.0;" x1="673" x2="673" y1="509.9531" y2="535.9531"/><line style="stroke:#181818;stroke-width:2.0;" x1="591" x2="673" y1="535.9531" y2="535.9531"/><polygon fill="#181818" points="611,527.9531,591,535.9531,611,543.9531,603,535.9531" style="stroke:#181818;stroke-width:2.0;"/><text fill="#000000" font-family="sans-serif" font-size="26" lengthAdjust="spacing" textLength="302" x="603" y="467.5371">&#1054;&#1087;&#1088;&#1077;&#1076;&#1077;&#1083;&#1077;&#1085;&#1080;&#1077; &#1087;&#1088;&#1080;&#1086;&#1088;&#1080;&#1090;&#1077;&#1090;&#1072;</text><text fill="#000000" font-family="sans-serif" font-size="26" lengthAdjust="spacing" textLength="244" x="603" y="500.2402">&#1079;&#1072;&#1103;&#1074;&#1082;&#1080; &#1087;&#1086; &#1080;&#1089;&#1090;&#1086;&#1095;&#1085;&#1080;&#1082;&#1091;</text><polygon fill="#181818" points="945,588.6563,965,596.6563,945,604.6563,953,596.6563" style="stroke:#181818;stroke-width:2.0;"/><line style="stroke:#181818;stroke-width:2.0;" x1="589" x2="957" y1="596.6563" y2="596.6563"/><text fill="#000000" font-family="sans-serif" font-size="26" lengthAdjust="spacing" textLength="206" x="603" y="586.9434">&#1055;&#1077;&#1088;&#1077;&#1076;&#1072;&#1095;&#1072; &#1079;&#1072;&#1103;&#1074;&#1082;&#1080;</text><line style="stroke:#181818;stroke-width:2.0;" x1="989" x2="1073" y1="657.3594" y2="657.3594"/><line style="stroke:#181818;stroke-width:2.0;" x1="1073" x2="1073" y1="657.3594" y2="683.3594"/><line style="stroke:#181818;stroke-width:2.0;" x1="991" x2="1073" y1="683.3594" y2="683.3594"/><polygon fill="#181818" points="1011,675.3594,991,683.3594,1011,691.3594,1003,683.3594" style="stroke:#181818;stroke-width:2.0;"/><text fill="#000000" font-family="sans-serif" font-size="26" lengthAdjust="spacing" textLength="310" x="1003" y="647.6465">&#1055;&#1088;&#1086;&#1074;&#1077;&#1088;&#1082;&#1072; &#1084;&#1077;&#1089;&#1090;&#1072; &#1074; &#1073;&#1091;&#1092;&#1077;&#1088;&#1077;</text><path d="M16,707.3594 L138,707.3594 L138,724.0625 L118,744.0625 L16,744.0625 L16,707.3594 " fill="#EEEEEE" style="stroke:#000000;stroke-width:3.0;"/><rect fill="none" height="713.0781" style="stroke:#000000;stroke-width:3.0;" width="1379" x="16" y="707.3594"/><text fill="#000000" font-family="sans-serif" font-size="26" font-weight="bold" lengthAdjust="spacing" textLength="32" x="46" y="736.3496">alt</text><text fill="#000000" font-family="sans-serif" font-size="22" font-weight="bold" lengthAdjust="spacing" textLength="204" x="168" y="734.1973">[&#1073;&#1091;&#1092;&#1077;&#1088; &#1089;&#1074;&#1086;&#1073;&#1086;&#1076;&#1077;&#1085;]</text><line style="stroke:#000000;stroke-width:2.0;stroke-dasharray:2.0,2.0;" x1="16" x2="1395" y1="879.4688" y2="879.4688"/><text fill="#000000" font-family="sans-serif" font-size="22" font-weight="bold" lengthAdjust="spacing" textLength="234" x="26" y="906.3066">[&#1073;&#1091;&#1092;&#1077;&#1088; &#1087;&#1077;&#1088;&#1077;&#1087;&#1086;&#1083;&#1085;&#1077;&#1085;]</text><polygon fill="#181818" points="611,764.0625,591,772.0625,611,780.0625,603,772.0625" style="stroke:#181818;stroke-width:2.0;"/><line style="stroke:#181818;stroke-width:2.0;stroke-dasharray:2.0,2.0;" x1="599" x2="967" y1="772.0625" y2="772.0625"/><text fill="#000000" font-family="sans-serif" font-size="26" lengthAdjust="spacing" textLength="332" x="623" y="801.0527">&#1055;&#1086;&#1076;&#1090;&#1074;&#1077;&#1088;&#1078;&#1076;&#1077;&#1085;&#1080;&#1077; &#1087;&#1086;&#1089;&#1090;&#1072;&#1085;&#1086;&#1074;&#1082;&#1080;</text><text fill="#000000" font-family="sans-serif" font-size="26" lengthAdjust="spacing" textLength="210" x="623" y="833.7559">&#1079;&#1072;&#1103;&#1074;&#1082;&#1080; &#1074; &#1086;&#1095;&#1077;&#1088;&#1077;&#1076;&#1100;</text><polygon fill="#181818" points="217,764.0625,197,772.0625,217,780.0625,209,772.0625" style="stroke:#181818;stroke-width:2.0;"/><line style="stroke:#181818;stroke-width:2.0;stroke-dasharray:2.0,2.0;" x1="205" x2="567" y1="772.0625" y2="772.0625"/><text fill="#000000" font-family="sans-serif" font-size="26" lengthAdjust="spacing" textLength="306" x="229" y="801.0527">&#1055;&#1086;&#1076;&#1090;&#1074;&#1077;&#1088;&#1078;&#1076;&#1077;&#1085;&#1080;&#1077; &#1087;&#1088;&#1080;&#1085;&#1103;&#1090;&#1080;&#1103;</text><text fill="#000000" font-family="sans-serif" font-size="26" lengthAdjust="spacing" textLength="230" x="229" y="833.7559">&#1079;&#1072;&#1103;&#1074;&#1082;&#1080; &#1074; &#1086;&#1073;&#1088;&#1072;&#1073;&#1086;&#1090;&#1082;&#1091;</text><line style="stroke:#181818;stroke-width:2.0;" x1="989" x2="1073" y1="998.5469" y2="998.5469"/><line style="stroke:#181818;stroke-width:2.0;" x1="1073" x2="1073" y1="998.5469" y2="1024.5469"/><line style="stroke:#181818;stroke-width:2.0;" x1="991" x2="1073" y1="1024.5469" y2="1024.5469"/><polygon fill="#181818" points="1011,1016.5469,991,1024.5469,1011,1032.5469,1003,1024.5469" style="stroke:#181818;stroke-width:2.0;"/><text fill="#000000" font-family="sans-serif" font-size="26" lengthAdjust="spacing" textLength="346" x="1003" y="956.1309">&#1055;&#1086;&#1080;&#1089;&#1082; &#1079;&#1072;&#1103;&#1074;&#1082;&#1080; &#1089; &#1085;&#1072;&#1080;&#1084;&#1077;&#1085;&#1100;&#1096;&#1080;&#1084;</text><text fill="#000000" font-family="sans-serif" font-size="26" lengthAdjust="spacing" textLength="150" x="1003" y="988.834">&#1087;&#1088;&#1080;&#1086;&#1088;&#1080;&#1090;&#1077;&#1090;&#1086;&#1084;</text><path d="M54,1048.5469 L176,1048.5469 L176,1065.25 L156,1085.25 L54,1085.25 L54,1048.5469 " fill="#EEEEEE" style="stroke:#000000;stroke-width:3.0;"/><rect fill="none" height="343.8906" style="stroke:#000000;stroke-width:3.0;" width="1031" x="54" y="1048.5469"/><text fill="#000000" font-family="sans-serif" font-size="26" font-weight="bold" lengthAdjust="spacing" textLength="32" x="84" y="1077.5371">alt</text><text fill="#000000" font-family="sans-serif" font-size="22" font-weight="bold" lengthAdjust="spacing" textLength="402" x="206" y="1075.3848">[&#1087;&#1088;&#1080;&#1086;&#1088;&#1080;&#1090;&#1077;&#1090; &#1074;&#1093;&#1086;&#1076;&#1103;&#1097;&#1077;&#1081; &#1079;&#1072;&#1103;&#1074;&#1082;&#1080; &#1074;&#1099;&#1096;&#1077;]</text><line style="stroke:#000000;stroke-width:2.0;stroke-dasharray:2.0,2.0;" x1="54" x2="1085" y1="1290.0625" y2="1290.0625"/><text fill="#000000" font-family="sans-serif" font-size="22" font-weight="bold" lengthAdjust="spacing" textLength="398" x="64" y="1316.9004">[&#1087;&#1088;&#1080;&#1086;&#1088;&#1080;&#1090;&#1077;&#1090; &#1074;&#1093;&#1086;&#1076;&#1103;&#1097;&#1077;&#1081; &#1079;&#1072;&#1103;&#1074;&#1082;&#1080; &#1085;&#1080;&#1078;&#1077;]</text><polygon fill="#181818" points="611,1174.6563,591,1182.6563,611,1190.6563,603,1182.6563" style="stroke:#181818;stroke-width:2.0;"/><line style="stroke:#181818;stroke-width:2.0;stroke-dasharray:2.0,2.0;" x1="599" x2="967" y1="1182.6563" y2="1182.6563"/><text fill="#000000" font-family="sans-serif" font-size="26" lengthAdjust="spacing" textLength="288" x="623" y="1211.6465">&#1055;&#1086;&#1076;&#1090;&#1074;&#1077;&#1088;&#1078;&#1076;&#1077;&#1085;&#1080;&#1077; &#1079;&#1072;&#1084;&#1077;&#1085;&#1099;</text><text fill="#000000" font-family="sans-serif" font-size="26" lengthAdjust="spacing" textLength="210" x="623" y="1244.3496">&#1079;&#1072;&#1103;&#1074;&#1082;&#1080; &#1074; &#1086;&#1095;&#1077;&#1088;&#1077;&#1076;&#1080;</text><polygon fill="#181818" points="32,1174.6563,12,1182.6563,32,1190.6563,24,1182.6563" style="stroke:#181818;stroke-width:2.0;"/><line style="stroke:#181818;stroke-width:2.0;stroke-dasharray:2.0,2.0;" x1="20" x2="567" y1="1182.6563" y2="1182.6563"/><text fill="#000000" font-family="sans-serif" font-size="26" lengthAdjust="spacing" textLength="290" x="44" y="1140.2402">&#1059;&#1074;&#1077;&#1076;&#1086;&#1084;&#1083;&#1077;&#1085;&#1080;&#1077; &#1080;&#1089;&#1090;&#1086;&#1095;&#1085;&#1080;&#1082;&#1072;</text><text fill="#000000" font-family="sans-serif" font-size="26" lengthAdjust="spacing" textLength="314" x="44" y="1172.9434">&#1074; &#1086;&#1090;&#1082;&#1072;&#1079;&#1077; &#1086;&#1073;&#1088;&#1072;&#1073;&#1086;&#1090;&#1082;&#1080; &#1079;&#1072;&#1103;&#1074;&#1082;&#1080;</text><polygon fill="#181818" points="611,1331.7344,591,1339.7344,611,1347.7344,603,1339.7344" style="stroke:#181818;stroke-width:2.0;"/><line style="stroke:#181818;stroke-width:2.0;stroke-dasharray:2.0,2.0;" x1="599" x2="967" y1="1339.7344" y2="1339.7344"/><text fill="#000000" font-family="sans-serif" font-size="26" lengthAdjust="spacing" textLength="232" x="623" y="1368.7246">&#1054;&#1090;&#1082;&#1072;&#1079; &#1074; &#1087;&#1086;&#1089;&#1090;&#1072;&#1085;&#1086;&#1074;&#1082;&#1077;</text><polygon fill="#181818" points="217,1331.7344,197,1339.7344,217,1347.7344,209,1339.7344" style="stroke:#181818;stroke-width:2.0;"/><line style="stroke:#181818;stroke-width:2.0;stroke-dasharray:2.0,2.0;" x1="205" x2="567" y1="1339.7344" y2="1339.7344"/><text fill="#000000" font-family="sans-serif" font-size="26" lengthAdjust="spacing" textLength="306" x="229" y="1368.7246">&#1054;&#1090;&#1082;&#1072;&#1079; &#1074; &#1086;&#1073;&#1088;&#1072;&#1073;&#1086;&#1090;&#1082;&#1077; &#1079;&#1072;&#1103;&#1074;&#1082;&#1080;</text><path d="M54,1456.4375 L200,1456.4375 L200,1473.1406 L180,1493.1406 L54,1493.1406 L54,1456.4375 " fill="#EEEEEE" style="stroke:#000000;stroke-width:3.0;"/><rect fill="none" height="665.625" style="stroke:#000000;stroke-width:3.0;" width="1741" x="54" y="1456.4375"/><text fill="#000000" font-family="sans-serif" font-size="26" font-weight="bold" lengthAdjust="spacing" textLength="56" x="84" y="1485.4277">loop</text><text fill="#000000" font-family="sans-serif" font-size="22" font-weight="bold" lengthAdjust="spacing" textLength="212" x="230" y="1483.2754">[&#1086;&#1073;&#1088;&#1072;&#1073;&#1086;&#1090;&#1082;&#1072; &#1079;&#1072;&#1103;&#1074;&#1086;&#1082;]</text><polygon fill="#181818" points="1011,1513.1406,991,1521.1406,1011,1529.1406,1003,1521.1406" style="stroke:#181818;stroke-width:2.0;"/><line style="stroke:#181818;stroke-width:2.0;" x1="999" x2="1361" y1="1521.1406" y2="1521.1406"/><text fill="#000000" font-family="sans-serif" font-size="26" lengthAdjust="spacing" textLength="260" x="1023" y="1550.1309">&#1047;&#1072;&#1087;&#1088;&#1086;&#1089; &#1087;&#1072;&#1082;&#1077;&#1090;&#1072; &#1079;&#1072;&#1103;&#1074;&#1086;&#1082;</text><line style="stroke:#181818;stroke-width:2.0;" x1="989" x2="1073" y1="1618.5469" y2="1618.5469"/><line style="stroke:#181818;stroke-width:2.0;" x1="1073" x2="1073" y1="1618.5469" y2="1644.5469"/><line style="stroke:#181818;stroke-width:2.0;" x1="991" x2="1073" y1="1644.5469" y2="1644.5469"/><polygon fill="#181818" points="1011,1636.5469,991,1644.5469,1011,1652.5469,1003,1644.5469" style="stroke:#181818;stroke-width:2.0;"/><text fill="#000000" font-family="sans-serif" font-size="26" lengthAdjust="spacing" textLength="336" x="1003" y="1608.834">&#1055;&#1086;&#1080;&#1089;&#1082; &#1087;&#1088;&#1080;&#1086;&#1088;&#1080;&#1090;&#1077;&#1090;&#1085;&#1086;&#1075;&#1086; &#1087;&#1072;&#1082;&#1077;&#1090;&#1072;</text><polygon fill="#181818" points="1339,1697.25,1359,1705.25,1339,1713.25,1347,1705.25" style="stroke:#181818;stroke-width:2.0;"/><line style="stroke:#181818;stroke-width:2.0;stroke-dasharray:2.0,2.0;" x1="989" x2="1351" y1="1705.25" y2="1705.25"/><text fill="#000000" font-family="sans-serif" font-size="26" lengthAdjust="spacing" textLength="270" x="1003" y="1695.5371">&#1042;&#1086;&#1079;&#1074;&#1088;&#1072;&#1090; &#1087;&#1072;&#1082;&#1077;&#1090;&#1072; &#1079;&#1072;&#1103;&#1074;&#1086;&#1082;</text><line style="stroke:#181818;stroke-width:2.0;" x1="1373" x2="1457" y1="1765.9531" y2="1765.9531"/><line style="stroke:#181818;stroke-width:2.0;" x1="1457" x2="1457" y1="1765.9531" y2="1791.9531"/><line style="stroke:#181818;stroke-width:2.0;" x1="1375" x2="1457" y1="1791.9531" y2="1791.9531"/><polygon fill="#181818" points="1395,1783.9531,1375,1791.9531,1395,1799.9531,1387,1791.9531" style="stroke:#181818;stroke-width:2.0;"/><text fill="#000000" font-family="sans-serif" font-size="26" lengthAdjust="spacing" textLength="334" x="1387" y="1756.2402">&#1054;&#1073;&#1088;&#1072;&#1073;&#1086;&#1090;&#1082;&#1072; &#1079;&#1072;&#1103;&#1074;&#1086;&#1082; &#1080;&#1079; &#1087;&#1072;&#1082;&#1077;&#1090;&#1072;</text><polygon fill="#181818" points="1739,2004.6563,1759,2012.6563,1739,2020.6563,1747,2012.6563" style="stroke:#181818;stroke-width:2.0;"/><line style="stroke:#181818;stroke-width:2.0;" x1="1373" x2="1751" y1="2012.6563" y2="2012.6563"/><text fill="#000000" font-family="sans-serif" font-size="26" lengthAdjust="spacing" textLength="352" x="1387" y="2002.9434">&#1047;&#1072;&#1087;&#1080;&#1089;&#1100; &#1088;&#1077;&#1079;&#1091;&#1083;&#1100;&#1090;&#1072;&#1090;&#1072; &#1086;&#1073;&#1088;&#1072;&#1073;&#1086;&#1090;&#1082;&#1080;</text><polygon fill="#181818" points="601,2028.6563,581,2036.6563,601,2044.6563,593,2036.6563" style="stroke:#181818;stroke-width:2.0;"/><line style="stroke:#181818;stroke-width:2.0;stroke-dasharray:2.0,2.0;" x1="589" x2="1351" y1="2036.6563" y2="2036.6563"/><text fill="#000000" font-family="sans-serif" font-size="26" lengthAdjust="spacing" textLength="200" x="613" y="2065.6465">&#1047;&#1072;&#1082;&#1088;&#1099;&#1090;&#1080;&#1077; &#1079;&#1072;&#1103;&#1074;&#1082;&#1080;</text><polygon fill="#181818" points="217,2028.6563,197,2036.6563,217,2044.6563,209,2036.6563" style="stroke:#181818;stroke-width:2.0;"/><line style="stroke:#181818;stroke-width:2.0;stroke-dasharray:2.0,2.0;" x1="205" x2="577" y1="2036.6563" y2="2036.6563"/><text fill="#000000" font-family="sans-serif" font-size="26" lengthAdjust="spacing" textLength="336" x="229" y="2065.6465">&#1059;&#1074;&#1077;&#1076;&#1086;&#1084;&#1083;&#1077;&#1085;&#1080;&#1077; &#1086; &#1074;&#1099;&#1087;&#1086;&#1083;&#1085;&#1077;&#1085;&#1080;&#1080;</text><text fill="#000000" font-family="sans-serif" font-size="26" lengthAdjust="spacing" textLength="80" x="229" y="2098.3496">&#1079;&#1072;&#1103;&#1074;&#1082;&#1080;</text><!--SRC=[bLN1IXjH55rFlk9LeRJOGAsR8aNGZHJQZMxTJCpJIk9CEZCXfBY8iQKj2i5IKBfGQNzWaZgQZZh-mdr_r7FVcyH9HWCAbUdCE-UUU-vvL-j9pRCtjsqHIFUJ2BowB1GilxBbr6pFtXQBwu7hhGRDgXHsG_hkjin-NP5-pNLy-LxwlhqfbsJLRInwdjimH9Q_RWFu2emsymZBcg9JIkXSjIYaIpgdYAxmxuRw5Aqvp-XOxQes9UghVXM_47HCXy-dBDiNlbltrgMONlRiPi4gkNMdR7jDJVYRVZ7u9_NLBjrIfDeWY5GBGFC3U2seYEctJddBTbPakM1zhCkwj5ZGeTfJd_cuvfYb4pgQ6o8PMgflR4XFJB_RslmGB7jIEWLBEi5Mq6HuhYhJdAB1FdNHIGizdCxDQa9mDLol8hs2LRO3ksJx4WHdCE1IxT6LEa3leMepmGcTpG9v0a6f5e3B9J6zMcakLSsGj25MSO5xcvcPnnaw0SEjDhS7lWwB4l0vn6EFOhK7upnfLmHhpXejyDY6YdqS2-z13OgzAHQvsdnQAkOf2ke1JbrTjgk9Oeeo1DHdl-0va11f1BDSa6YrqMWGX7xPP_EWiyroA5npieGuGack2rOwh66cnhuW8L5Q9SJHS4oQENW7uUPuVWaEC2vcn3KUkLQek-qE8aCHebqDCcy4mj1ZEpZct17CCvhOkq65z1Qqqn8NvcZQF1hIfV0YCIB7csV3JTYuAtM06a_p4vfKGnjyephut5UT-_X71yhMogelivtgqBC2ACRqRj9kytvg9NnBuX7hOPK0AeIIQyOY_z_u6Mho0KZe6jpQwzn725PVTBCTzHrC_yHOEseVp1ZLVQEOw1DeKctxasV0GS8Gh9Gy3JZzOL9yXVfiliTogzFT4-dLuSKOvMzKVooswJWURGPNlBZVZ69nVlnUvyEeaMDfO-1ZDu9P2VohO5LTjvP7P2vgGl5Tib3LCdjKRpqw0ePjI3XFj_XFR5R6G_3YWZKS_aWsywdZfl_ofidGPfb0PPGKYthJ_C3vImoWnNjyeXW3qvlAF9hzFT4218VD7TMoi_FwvSxEA6EvfDThQesEsu7GGHtvGyFqkPWDzvKUxg2xWS-nQk4ojOUt8pFFGIQo5-316v3eMvdT77W_jkTqElu3]--></g></svg>