<?xml version="1.0" encoding="us-ascii" standalone="no"?><svg xmlns="http://www.w3.org/2000/svg" xmlns:xlink="http://www.w3.org/1999/xlink" contentStyleType="text/css" height="2588px" preserveAspectRatio="none" style="width:1844px;height:2588px;background:#FFFFFF;" version="1.1" viewBox="0 0 1844 2588" width="1844px" zoomAndPan="magnify"><defs/><g><line style="stroke:#181818;stroke-width:1.0;stroke-dasharray:5.0,5.0;" x1="195" x2="195" y1="202.4375" y2="2384.875"/><line style="stroke:#181818;stroke-width:1.0;stroke-dasharray:5.0,5.0;" x1="579" x2="579" y1="202.4375" y2="2384.875"/><rect fill="#FFFFFF" height="1230.7031" style="stroke:#181818;stroke-width:2.0;" width="20" x="569" y="263.1406"/><line style="stroke:#181818;stroke-width:1.0;stroke-dasharray:5.0,5.0;" x1="979" x2="979" y1="202.4375" y2="2384.875"/><rect fill="#FFFFFF" height="836.4844" style="stroke:#181818;stroke-width:2.0;" width="20" x="969" y="596.6563"/><rect fill="#FFFFFF" height="184.1094" style="stroke:#181818;stroke-width:2.0;" width="20" x="969" y="1675.25"/><line style="stroke:#181818;stroke-width:1.0;stroke-dasharray:5.0,5.0;" x1="1363" x2="1363" y1="202.4375" y2="2384.875"/><rect fill="#FFFFFF" height="315.4063" style="stroke:#181818;stroke-width:2.0;" width="20" x="1353" y="1875.3594"/><line style="stroke:#181818;stroke-width:1.0;stroke-dasharray:5.0,5.0;" x1="1763" x2="1763" y1="202.4375" y2="2384.875"/><text fill="#000000" font-family="sans-serif" font-size="28" lengthAdjust="spacing" textLength="206" x="86" y="161.0664">&#1055;&#1086;&#1076;&#1088;&#1072;&#1079;&#1076;&#1077;&#1083;&#1077;&#1085;&#1080;&#1077;</text><text fill="#000000" font-family="sans-serif" font-size="28" lengthAdjust="spacing" textLength="196" x="91" y="196.2852">(&#1048;&#1089;&#1090;&#1086;&#1095;&#1085;&#1080;&#1082;, &#1048;&#1041;)</text><ellipse cx="195" cy="43" fill="#808080" rx="32" ry="32" style="stroke:#181818;stroke-width:1.0;"/><path d="M195,83 C203,83 209,83 217,75 C233,75 249,91 249,107 L249,115 C249,123 241,131 233,131 L157,131 C149,131 141,123 141,115 L141,107 C141,91 157,75 173,75 C181,83 187,83 195,83 " fill="#808080" style="stroke:#181818;stroke-width:1.0;"/><text fill="#000000" font-family="sans-serif" font-size="28" lengthAdjust="spacing" textLength="52" x="547" y="161.0664">&#1055;&#1058;&#1050;</text><text fill="#000000" font-family="sans-serif" font-size="28" lengthAdjust="spacing" textLength="160" x="493" y="196.2852">(&#1044;&#1080;&#1089;&#1087;&#1077;&#1090;&#1095;&#1077;&#1088;)</text><path d="M538,76 L538,124 M538,100 L572,100 " fill="none" style="stroke:#181818;stroke-width:1.0;"/><ellipse cx="596" cy="100" fill="#CD5C5C" rx="24" ry="24" style="stroke:#181818;stroke-width:1.0;"/><path d="M915,112 L1043,112 C1053,112 1053,157.2188 1053,157.2188 C1053,157.2188 1053,202.4375 1043,202.4375 L915,202.4375 C905,202.4375 905,157.2188 905,157.2188 C905,157.2188 905,112 915,112 " fill="#90EE90" style="stroke:#181818;stroke-width:1.0;"/><path d="M1043,112 C1033,112 1033,157.2188 1033,157.2188 C1033,202.4375 1043,202.4375 1043,202.4375 " fill="none" style="stroke:#181818;stroke-width:1.0;"/><text fill="#000000" font-family="sans-serif" font-size="28" lengthAdjust="spacing" textLength="86" x="926" y="151.0664">&#1041;&#1091;&#1092;&#1077;&#1088;</text><text fill="#000000" font-family="sans-serif" font-size="28" lengthAdjust="spacing" textLength="108" x="915" y="186.2852">(&#1044;1&#1054;&#1047;3)</text><text fill="#000000" font-family="sans-serif" font-size="28" lengthAdjust="spacing" textLength="140" x="1287" y="161.0664">&#1044;&#1080;&#1089;&#1087;&#1077;&#1090;&#1095;&#1077;&#1088;</text><text fill="#000000" font-family="sans-serif" font-size="28" lengthAdjust="spacing" textLength="184" x="1265" y="196.2852">(&#1055;&#1088;&#1080;&#1073;&#1086;&#1088;, &#1055;31)</text><ellipse cx="1363" cy="100" fill="#E2E2F0" rx="24" ry="24" style="stroke:#181818;stroke-width:1.0;"/><line style="stroke:#181818;stroke-width:1.0;" x1="1339" x2="1387" y1="128" y2="128"/><text fill="#000000" font-family="sans-serif" font-size="28" lengthAdjust="spacing" textLength="136" x="1689" y="161.0664">&#1056;&#1077;&#1079;&#1091;&#1083;&#1100;&#1090;&#1072;&#1090;</text><text fill="#000000" font-family="sans-serif" font-size="28" lengthAdjust="spacing" textLength="148" x="1683" y="196.2852">(&#1054;&#1056;1, &#1054;&#1044;1)</text><path d="M1727,60 C1727,40 1763,40 1763,40 C1763,40 1799,40 1799,60 L1799,112 C1799,132 1763,132 1763,132 C1763,132 1727,132 1727,112 L1727,60 " fill="#87CEEB" style="stroke:#181818;stroke-width:3.0;"/><path d="M1727,60 C1727,80 1763,80 1763,80 C1763,80 1799,80 1799,60 " fill="none" style="stroke:#181818;stroke-width:3.0;"/><text fill="#000000" font-family="sans-serif" font-size="28" lengthAdjust="spacing" textLength="206" x="86" y="2535.9414">&#1055;&#1086;&#1076;&#1088;&#1072;&#1079;&#1076;&#1077;&#1083;&#1077;&#1085;&#1080;&#1077;</text><text fill="#000000" font-family="sans-serif" font-size="28" lengthAdjust="spacing" textLength="196" x="91" y="2571.1602">(&#1048;&#1089;&#1090;&#1086;&#1095;&#1085;&#1080;&#1082;, &#1048;&#1041;)</text><ellipse cx="195" cy="2417.875" fill="#808080" rx="32" ry="32" style="stroke:#181818;stroke-width:1.0;"/><path d="M195,2457.875 C203,2457.875 209,2457.875 217,2449.875 C233,2449.875 249,2465.875 249,2481.875 L249,2489.875 C249,2497.875 241,2505.875 233,2505.875 L157,2505.875 C149,2505.875 141,2497.875 141,2489.875 L141,2481.875 C141,2465.875 157,2449.875 173,2449.875 C181,2457.875 187,2457.875 195,2457.875 " fill="#808080" style="stroke:#181818;stroke-width:1.0;"/><text fill="#000000" font-family="sans-serif" font-size="28" lengthAdjust="spacing" textLength="52" x="547" y="2477.9414">&#1055;&#1058;&#1050;</text><text fill="#000000" font-family="sans-serif" font-size="28" lengthAdjust="spacing" textLength="160" x="493" y="2513.1602">(&#1044;&#1080;&#1089;&#1087;&#1077;&#1090;&#1095;&#1077;&#1088;)</text><path d="M538,2392.875 L538,2440.875 M538,2416.875 L572,2416.875 " fill="none" style="stroke:#181818;stroke-width:1.0;"/><ellipse cx="596" cy="2416.875" fill="#CD5C5C" rx="24" ry="24" style="stroke:#181818;stroke-width:1.0;"/><path d="M915,2384.875 L1043,2384.875 C1053,2384.875 1053,2430.0938 1053,2430.0938 C1053,2430.0938 1053,2475.3125 1043,2475.3125 L915,2475.3125 C905,2475.3125 905,2430.0938 905,2430.0938 C905,2430.0938 905,2384.875 915,2384.875 " fill="#90EE90" style="stroke:#181818;stroke-width:1.0;"/><path d="M1043,2384.875 C1033,2384.875 1033,2430.0938 1033,2430.0938 C1033,2475.3125 1043,2475.3125 1043,2475.3125 " fill="none" style="stroke:#181818;stroke-width:1.0;"/><text fill="#000000" font-family="sans-serif" font-size="28" lengthAdjust="spacing" textLength="86" x="926" y="2423.9414">&#1041;&#1091;&#1092;&#1077;&#1088;</text><text fill="#000000" font-family="sans-serif" font-size="28" lengthAdjust="spacing" textLength="108" x="915" y="2459.1602">(&#1044;1&#1054;&#1047;3)</text><text fill="#000000" font-family="sans-serif" font-size="28" lengthAdjust="spacing" textLength="140" x="1287" y="2477.9414">&#1044;&#1080;&#1089;&#1087;&#1077;&#1090;&#1095;&#1077;&#1088;</text><text fill="#000000" font-family="sans-serif" font-size="28" lengthAdjust="spacing" textLength="184" x="1265" y="2513.1602">(&#1055;&#1088;&#1080;&#1073;&#1086;&#1088;, &#1055;31)</text><ellipse cx="1363" cy="2416.875" fill="#E2E2F0" rx="24" ry="24" style="stroke:#181818;stroke-width:1.0;"/><line style="stroke:#181818;stroke-width:1.0;" x1="1339" x2="1387" y1="2444.875" y2="2444.875"/><text fill="#000000" font-family="sans-serif" font-size="28" lengthAdjust="spacing" textLength="136" x="1689" y="2505.9414">&#1056;&#1077;&#1079;&#1091;&#1083;&#1100;&#1090;&#1072;&#1090;</text><text fill="#000000" font-family="sans-serif" font-size="28" lengthAdjust="spacing" textLength="148" x="1683" y="2541.1602">(&#1054;&#1056;1, &#1054;&#1044;1)</text><path d="M1727,2404.875 C1727,2384.875 1763,2384.875 1763,2384.875 C1763,2384.875 1799,2384.875 1799,2404.875 L1799,2456.875 C1799,2476.875 1763,2476.875 1763,2476.875 C1763,2476.875 1727,2476.875 1727,2456.875 L1727,2404.875 " fill="#87CEEB" style="stroke:#181818;stroke-width:3.0;"/><path d="M1727,2404.875 C1727,2424.875 1763,2424.875 1763,2424.875 C1763,2424.875 1799,2424.875 1799,2404.875 " fill="none" style="stroke:#181818;stroke-width:3.0;"/><polygon fill="#181818" points="545,255.1406,565,263.1406,545,271.1406,553,263.1406" style="stroke:#181818;stroke-width:2.0;"/><line style="stroke:#181818;stroke-width:2.0;" x1="195" x2="557" y1="263.1406" y2="263.1406"/><text fill="#000000" font-family="sans-serif" font-size="26" lengthAdjust="spacing" textLength="226" x="209" y="253.4277">&#1054;&#1090;&#1087;&#1088;&#1072;&#1074;&#1083;&#1103;&#1077;&#1090; &#1079;&#1072;&#1103;&#1074;&#1082;&#1091;</text><path d="M163,287.1406 L325,287.1406 L325,303.8438 L305,323.8438 L163,323.8438 L163,287.1406 " fill="#EEEEEE" style="stroke:#000000;stroke-width:3.0;"/><rect fill="none" height="117.4063" style="stroke:#000000;stroke-width:3.0;" width="528" x="163" y="287.1406"/><text fill="#000000" font-family="sans-serif" font-size="26" font-weight="bold" lengthAdjust="spacing" textLength="72" x="193" y="316.1309">break</text><text fill="#000000" font-family="sans-serif" font-size="22" font-weight="bold" lengthAdjust="spacing" textLength="304" x="355" y="313.9785">[&#1080;&#1089;&#1090;&#1086;&#1095;&#1085;&#1080;&#1082; &#1086;&#1090;&#1079;&#1099;&#1074;&#1072;&#1077;&#1090; &#1079;&#1072;&#1103;&#1074;&#1082;&#1091;]</text><polygon fill="#181818" points="217,343.8438,197,351.8438,217,359.8438,209,351.8438" style="stroke:#181818;stroke-width:2.0;"/><line style="stroke:#181818;stroke-width:2.0;stroke-dasharray:2.0,2.0;" x1="205" x2="567" y1="351.8438" y2="351.8438"/><text fill="#000000" font-family="sans-serif" font-size="26" lengthAdjust="spacing" textLength="306" x="229" y="380.834">&#1054;&#1090;&#1082;&#1072;&#1079; &#1074; &#1086;&#1073;&#1088;&#1072;&#1073;&#1086;&#1090;&#1082;&#1077; &#1079;&#1072;&#1103;&#1074;&#1082;&#1080;</text><line style="stroke:#181818;stroke-width:2.0;" x1="589" x2="673" y1="509.9531" y2="509.9531"/><line style="stroke:#181818;stroke-width:2.0;" x1="673" x2="673" y1="509.9531" y2="535.9531"/><line style="stroke:#181818;stroke-width:2.0;" x1="591" x2="673" y1="535.9531" y2="535.9531"/><polygon fill="#181818" points="611,527.9531,591,535.9531,611,543.9531,603,535.9531" style="stroke:#181818;stroke-width:2.0;"/><text fill="#000000" font-family="sans-serif" font-size="26" lengthAdjust="spacing" textLength="302" x="603" y="467.5371">&#1054;&#1087;&#1088;&#1077;&#1076;&#1077;&#1083;&#1077;&#1085;&#1080;&#1077; &#1087;&#1088;&#1080;&#1086;&#1088;&#1080;&#1090;&#1077;&#1090;&#1072;</text><text fill="#000000" font-family="sans-serif" font-size="26" lengthAdjust="spacing" textLength="244" x="603" y="500.2402">&#1079;&#1072;&#1103;&#1074;&#1082;&#1080; &#1087;&#1086; &#1080;&#1089;&#1090;&#1086;&#1095;&#1085;&#1080;&#1082;&#1091;</text><polygon fill="#181818" points="945,588.6563,965,596.6563,945,604.6563,953,596.6563" style="stroke:#181818;stroke-width:2.0;"/><line style="stroke:#181818;stroke-width:2.0;" x1="589" x2="957" y1="596.6563" y2="596.6563"/><text fill="#000000" font-family="sans-serif" font-size="26" lengthAdjust="spacing" textLength="206" x="603" y="586.9434">&#1055;&#1077;&#1088;&#1077;&#1076;&#1072;&#1095;&#1072; &#1079;&#1072;&#1103;&#1074;&#1082;&#1080;</text><line style="stroke:#181818;stroke-width:2.0;" x1="989" x2="1073" y1="657.3594" y2="657.3594"/><line style="stroke:#181818;stroke-width:2.0;" x1="1073" x2="1073" y1="657.3594" y2="683.3594"/><line style="stroke:#181818;stroke-width:2.0;" x1="991" x2="1073" y1="683.3594" y2="683.3594"/><polygon fill="#181818" points="1011,675.3594,991,683.3594,1011,691.3594,1003,683.3594" style="stroke:#181818;stroke-width:2.0;"/><text fill="#000000" font-family="sans-serif" font-size="26" lengthAdjust="spacing" textLength="310" x="1003" y="647.6465">&#1055;&#1088;&#1086;&#1074;&#1077;&#1088;&#1082;&#1072; &#1084;&#1077;&#1089;&#1090;&#1072; &#1074; &#1073;&#1091;&#1092;&#1077;&#1088;&#1077;</text><path d="M16,707.3594 L138,707.3594 L138,724.0625 L118,744.0625 L16,744.0625 L16,707.3594 " fill="#EEEEEE" style="stroke:#000000;stroke-width:3.0;"/><rect fill="none" height="867.1875" style="stroke:#000000;stroke-width:3.0;" width="1379" x="16" y="707.3594"/><text fill="#000000" font-family="sans-serif" font-size="26" font-weight="bold" lengthAdjust="spacing" textLength="32" x="46" y="736.3496">alt</text><text fill="#000000" font-family="sans-serif" font-size="22" font-weight="bold" lengthAdjust="spacing" textLength="204" x="168" y="734.1973">[&#1073;&#1091;&#1092;&#1077;&#1088; &#1089;&#1074;&#1086;&#1073;&#1086;&#1076;&#1077;&#1085;]</text><line style="stroke:#000000;stroke-width:2.0;stroke-dasharray:2.0,2.0;" x1="16" x2="1395" y1="972.875" y2="972.875"/><text fill="#000000" font-family="sans-serif" font-size="22" font-weight="bold" lengthAdjust="spacing" textLength="234" x="26" y="999.7129">[&#1073;&#1091;&#1092;&#1077;&#1088; &#1087;&#1077;&#1088;&#1077;&#1087;&#1086;&#1083;&#1085;&#1077;&#1085;]</text><polygon fill="#181818" points="611,764.0625,591,772.0625,611,780.0625,603,772.0625" style="stroke:#181818;stroke-width:2.0;"/><line style="stroke:#181818;stroke-width:2.0;stroke-dasharray:2.0,2.0;" x1="599" x2="967" y1="772.0625" y2="772.0625"/><text fill="#000000" font-family="sans-serif" font-size="26" lengthAdjust="spacing" textLength="332" x="623" y="801.0527">&#1055;&#1086;&#1076;&#1090;&#1074;&#1077;&#1088;&#1078;&#1076;&#1077;&#1085;&#1080;&#1077; &#1087;&#1086;&#1089;&#1090;&#1072;&#1085;&#1086;&#1074;&#1082;&#1080;</text><text fill="#000000" font-family="sans-serif" font-size="26" lengthAdjust="spacing" textLength="210" x="623" y="833.7559">&#1079;&#1072;&#1103;&#1074;&#1082;&#1080; &#1074; &#1086;&#1095;&#1077;&#1088;&#1077;&#1076;&#1100;</text><polygon fill="#181818" points="217,857.4688,197,865.4688,217,873.4688,209,865.4688" style="stroke:#181818;stroke-width:2.0;"/><line style="stroke:#181818;stroke-width:2.0;stroke-dasharray:2.0,2.0;" x1="205" x2="567" y1="865.4688" y2="865.4688"/><text fill="#000000" font-family="sans-serif" font-size="26" lengthAdjust="spacing" textLength="306" x="229" y="894.459">&#1055;&#1086;&#1076;&#1090;&#1074;&#1077;&#1088;&#1078;&#1076;&#1077;&#1085;&#1080;&#1077; &#1087;&#1088;&#1080;&#1085;&#1103;&#1090;&#1080;&#1103;</text><text fill="#000000" font-family="sans-serif" font-size="26" lengthAdjust="spacing" textLength="230" x="229" y="927.1621">&#1079;&#1072;&#1103;&#1074;&#1082;&#1080; &#1074; &#1086;&#1073;&#1088;&#1072;&#1073;&#1086;&#1090;&#1082;&#1091;</text><line style="stroke:#181818;stroke-width:2.0;" x1="989" x2="1073" y1="1091.9531" y2="1091.9531"/><line style="stroke:#181818;stroke-width:2.0;" x1="1073" x2="1073" y1="1091.9531" y2="1117.9531"/><line style="stroke:#181818;stroke-width:2.0;" x1="991" x2="1073" y1="1117.9531" y2="1117.9531"/><polygon fill="#181818" points="1011,1109.9531,991,1117.9531,1011,1125.9531,1003,1117.9531" style="stroke:#181818;stroke-width:2.0;"/><text fill="#000000" font-family="sans-serif" font-size="26" lengthAdjust="spacing" textLength="346" x="1003" y="1049.5371">&#1055;&#1086;&#1080;&#1089;&#1082; &#1079;&#1072;&#1103;&#1074;&#1082;&#1080; &#1089; &#1085;&#1072;&#1080;&#1084;&#1077;&#1085;&#1100;&#1096;&#1080;&#1084;</text><text fill="#000000" font-family="sans-serif" font-size="26" lengthAdjust="spacing" textLength="150" x="1003" y="1082.2402">&#1087;&#1088;&#1080;&#1086;&#1088;&#1080;&#1090;&#1077;&#1090;&#1086;&#1084;</text><path d="M54,1141.9531 L176,1141.9531 L176,1158.6563 L156,1178.6563 L54,1178.6563 L54,1141.9531 " fill="#EEEEEE" style="stroke:#000000;stroke-width:3.0;"/><rect fill="none" height="404.5938" style="stroke:#000000;stroke-width:3.0;" width="1031" x="54" y="1141.9531"/><text fill="#000000" font-family="sans-serif" font-size="26" font-weight="bold" lengthAdjust="spacing" textLength="32" x="84" y="1170.9434">alt</text><text fill="#000000" font-family="sans-serif" font-size="22" font-weight="bold" lengthAdjust="spacing" textLength="402" x="206" y="1168.791">[&#1087;&#1088;&#1080;&#1086;&#1088;&#1080;&#1090;&#1077;&#1090; &#1074;&#1093;&#1086;&#1076;&#1103;&#1097;&#1077;&#1081; &#1079;&#1072;&#1103;&#1074;&#1082;&#1080; &#1074;&#1099;&#1096;&#1077;]</text><line style="stroke:#000000;stroke-width:2.0;stroke-dasharray:2.0,2.0;" x1="54" x2="1085" y1="1383.4688" y2="1383.4688"/><text fill="#000000" font-family="sans-serif" font-size="22" font-weight="bold" lengthAdjust="spacing" textLength="398" x="64" y="1410.3066">[&#1087;&#1088;&#1080;&#1086;&#1088;&#1080;&#1090;&#1077;&#1090; &#1074;&#1093;&#1086;&#1076;&#1103;&#1097;&#1077;&#1081; &#1079;&#1072;&#1103;&#1074;&#1082;&#1080; &#1085;&#1080;&#1078;&#1077;]</text><polygon fill="#181818" points="611,1268.0625,591,1276.0625,611,1284.0625,603,1276.0625" style="stroke:#181818;stroke-width:2.0;"/><line style="stroke:#181818;stroke-width:2.0;stroke-dasharray:2.0,2.0;" x1="599" x2="967" y1="1276.0625" y2="1276.0625"/><text fill="#000000" font-family="sans-serif" font-size="26" lengthAdjust="spacing" textLength="288" x="623" y="1305.0527">&#1055;&#1086;&#1076;&#1090;&#1074;&#1077;&#1088;&#1078;&#1076;&#1077;&#1085;&#1080;&#1077; &#1079;&#1072;&#1084;&#1077;&#1085;&#1099;</text><text fill="#000000" font-family="sans-serif" font-size="26" lengthAdjust="spacing" textLength="210" x="623" y="1337.7559">&#1079;&#1072;&#1103;&#1074;&#1082;&#1080; &#1074; &#1086;&#1095;&#1077;&#1088;&#1077;&#1076;&#1080;</text><polygon fill="#181818" points="32,1268.0625,12,1276.0625,32,1284.0625,24,1276.0625" style="stroke:#181818;stroke-width:2.0;"/><line style="stroke:#181818;stroke-width:2.0;stroke-dasharray:2.0,2.0;" x1="20" x2="567" y1="1276.0625" y2="1276.0625"/><text fill="#000000" font-family="sans-serif" font-size="26" lengthAdjust="spacing" textLength="290" x="44" y="1233.6465">&#1059;&#1074;&#1077;&#1076;&#1086;&#1084;&#1083;&#1077;&#1085;&#1080;&#1077; &#1080;&#1089;&#1090;&#1086;&#1095;&#1085;&#1080;&#1082;&#1072;</text><text fill="#000000" font-family="sans-serif" font-size="26" lengthAdjust="spacing" textLength="314" x="44" y="1266.3496">&#1074; &#1086;&#1090;&#1082;&#1072;&#1079;&#1077; &#1086;&#1073;&#1088;&#1072;&#1073;&#1086;&#1090;&#1082;&#1080; &#1079;&#1072;&#1103;&#1074;&#1082;&#1080;</text><polygon fill="#181818" points="611,1425.1406,591,1433.1406,611,1441.1406,603,1433.1406" style="stroke:#181818;stroke-width:2.0;"/><line style="stroke:#181818;stroke-width:2.0;stroke-dasharray:2.0,2.0;" x1="599" x2="967" y1="1433.1406" y2="1433.1406"/><text fill="#000000" font-family="sans-serif" font-size="26" lengthAdjust="spacing" textLength="232" x="623" y="1462.1309">&#1054;&#1090;&#1082;&#1072;&#1079; &#1074; &#1087;&#1086;&#1089;&#1090;&#1072;&#1085;&#1086;&#1074;&#1082;&#1077;</text><polygon fill="#181818" points="217,1485.8438,197,1493.8438,217,1501.8438,209,1493.8438" style="stroke:#181818;stroke-width:2.0;"/><line style="stroke:#181818;stroke-width:2.0;stroke-dasharray:2.0,2.0;" x1="205" x2="567" y1="1493.8438" y2="1493.8438"/><text fill="#000000" font-family="sans-serif" font-size="26" lengthAdjust="spacing" textLength="306" x="229" y="1522.834">&#1054;&#1090;&#1082;&#1072;&#1079; &#1074; &#1086;&#1073;&#1088;&#1072;&#1073;&#1086;&#1090;&#1082;&#1077; &#1079;&#1072;&#1103;&#1074;&#1082;&#1080;</text><path d="M54,1610.5469 L200,1610.5469 L200,1627.25 L180,1647.25 L54,1647.25 L54,1610.5469 " fill="#EEEEEE" style="stroke:#000000;stroke-width:3.0;"/><rect fill="none" height="726.3281" style="stroke:#000000;stroke-width:3.0;" width="1741" x="54" y="1610.5469"/><text fill="#000000" font-family="sans-serif" font-size="26" font-weight="bold" lengthAdjust="spacing" textLength="56" x="84" y="1639.5371">loop</text><text fill="#000000" font-family="sans-serif" font-size="22" font-weight="bold" lengthAdjust="spacing" textLength="212" x="230" y="1637.3848">[&#1086;&#1073;&#1088;&#1072;&#1073;&#1086;&#1090;&#1082;&#1072; &#1079;&#1072;&#1103;&#1074;&#1086;&#1082;]</text><polygon fill="#181818" points="1011,1667.25,991,1675.25,1011,1683.25,1003,1675.25" style="stroke:#181818;stroke-width:2.0;"/><line style="stroke:#181818;stroke-width:2.0;" x1="999" x2="1361" y1="1675.25" y2="1675.25"/><text fill="#000000" font-family="sans-serif" font-size="26" lengthAdjust="spacing" textLength="260" x="1023" y="1704.2402">&#1047;&#1072;&#1087;&#1088;&#1086;&#1089; &#1087;&#1072;&#1082;&#1077;&#1090;&#1072; &#1079;&#1072;&#1103;&#1074;&#1086;&#1082;</text><line style="stroke:#181818;stroke-width:2.0;" x1="989" x2="1073" y1="1772.6563" y2="1772.6563"/><line style="stroke:#181818;stroke-width:2.0;" x1="1073" x2="1073" y1="1772.6563" y2="1798.6563"/><line style="stroke:#181818;stroke-width:2.0;" x1="991" x2="1073" y1="1798.6563" y2="1798.6563"/><polygon fill="#181818" points="1011,1790.6563,991,1798.6563,1011,1806.6563,1003,1798.6563" style="stroke:#181818;stroke-width:2.0;"/><text fill="#000000" font-family="sans-serif" font-size="26" lengthAdjust="spacing" textLength="336" x="1003" y="1762.9434">&#1055;&#1086;&#1080;&#1089;&#1082; &#1087;&#1088;&#1080;&#1086;&#1088;&#1080;&#1090;&#1077;&#1090;&#1085;&#1086;&#1075;&#1086; &#1087;&#1072;&#1082;&#1077;&#1090;&#1072;</text><polygon fill="#181818" points="1339,1851.3594,1359,1859.3594,1339,1867.3594,1347,1859.3594" style="stroke:#181818;stroke-width:2.0;"/><line style="stroke:#181818;stroke-width:2.0;stroke-dasharray:2.0,2.0;" x1="989" x2="1351" y1="1859.3594" y2="1859.3594"/><text fill="#000000" font-family="sans-serif" font-size="26" lengthAdjust="spacing" textLength="270" x="1003" y="1849.6465">&#1042;&#1086;&#1079;&#1074;&#1088;&#1072;&#1090; &#1087;&#1072;&#1082;&#1077;&#1090;&#1072; &#1079;&#1072;&#1103;&#1074;&#1086;&#1082;</text><line style="stroke:#181818;stroke-width:2.0;" x1="1373" x2="1457" y1="1920.0625" y2="1920.0625"/><line style="stroke:#181818;stroke-width:2.0;" x1="1457" x2="1457" y1="1920.0625" y2="1946.0625"/><line style="stroke:#181818;stroke-width:2.0;" x1="1375" x2="1457" y1="1946.0625" y2="1946.0625"/><polygon fill="#181818" points="1395,1938.0625,1375,1946.0625,1395,1954.0625,1387,1946.0625" style="stroke:#181818;stroke-width:2.0;"/><text fill="#000000" font-family="sans-serif" font-size="26" lengthAdjust="spacing" textLength="334" x="1387" y="1910.3496">&#1054;&#1073;&#1088;&#1072;&#1073;&#1086;&#1090;&#1082;&#1072; &#1079;&#1072;&#1103;&#1074;&#1086;&#1082; &#1080;&#1079; &#1087;&#1072;&#1082;&#1077;&#1090;&#1072;</text><polygon fill="#181818" points="1739,2158.7656,1759,2166.7656,1739,2174.7656,1747,2166.7656" style="stroke:#181818;stroke-width:2.0;"/><line style="stroke:#181818;stroke-width:2.0;" x1="1373" x2="1751" y1="2166.7656" y2="2166.7656"/><text fill="#000000" font-family="sans-serif" font-size="26" lengthAdjust="spacing" textLength="352" x="1387" y="2157.0527">&#1047;&#1072;&#1087;&#1080;&#1089;&#1100; &#1088;&#1077;&#1079;&#1091;&#1083;&#1100;&#1090;&#1072;&#1090;&#1072; &#1086;&#1073;&#1088;&#1072;&#1073;&#1086;&#1090;&#1082;&#1080;</text><polygon fill="#181818" points="601,2182.7656,581,2190.7656,601,2198.7656,593,2190.7656" style="stroke:#181818;stroke-width:2.0;"/><line style="stroke:#181818;stroke-width:2.0;stroke-dasharray:2.0,2.0;" x1="589" x2="1351" y1="2190.7656" y2="2190.7656"/><text fill="#000000" font-family="sans-serif" font-size="26" lengthAdjust="spacing" textLength="200" x="613" y="2219.7559">&#1047;&#1072;&#1082;&#1088;&#1099;&#1090;&#1080;&#1077; &#1079;&#1072;&#1103;&#1074;&#1082;&#1080;</text><polygon fill="#181818" points="217,2243.4688,197,2251.4688,217,2259.4688,209,2251.4688" style="stroke:#181818;stroke-width:2.0;"/><line style="stroke:#181818;stroke-width:2.0;stroke-dasharray:2.0,2.0;" x1="205" x2="577" y1="2251.4688" y2="2251.4688"/><text fill="#000000" font-family="sans-serif" font-size="26" lengthAdjust="spacing" textLength="336" x="229" y="2280.459">&#1059;&#1074;&#1077;&#1076;&#1086;&#1084;&#1083;&#1077;&#1085;&#1080;&#1077; &#1086; &#1074;&#1099;&#1087;&#1086;&#1083;&#1085;&#1077;&#1085;&#1080;&#1080;</text><text fill="#000000" font-family="sans-serif" font-size="26" lengthAdjust="spacing" textLength="80" x="229" y="2313.1621">&#1079;&#1072;&#1103;&#1074;&#1082;&#1080;</text><!--SRC=[bLN1QXDH55s_VCNJW2WQi7OZHGJTYA0RtRgPDAyr99s9CnD2f8iqLLHQ21L1SP4M_O59T6mSs-altFT7dllU94uoQS22PPnvvznppptlLbnf-SxsZYD3vRsMeTzMfP886dMtvVZEZdom6Nh-yx3RLDBfgC3RKVclprJGyjn0FLL1u6ohXwhfTHxuljUnH2BOT02y0qQ7UQGGL-cOKlgfUnJHAVsacFxWtpbDA7xXNgSlUa_tATNlpAlabgGlT7JZgd026NXjVrF9yYFVwPP4rMkxDSVl6i9lz9N1dsYYz-Y2Ojq7GQnx0DeVm5jXGvOVkxMwupvJjP9urLPj9LZGaTxNR_YuuLYZ8NrUdo4PMcrlRIbVbf_Kjr-6Ztobt99GRbWFkmmlL6MQOpGueH4wwQ67u_KrGmYkZkStb5yIDITqgawWG7020qxrFltHX-Wzqdqc6DB96f132Cgq05oholBpHlTXqmx9628gzxctcpStS8Q6OBWmvex1Ds1H4Zv7U1nJelTXdA-SXcJDUQCb7ljGSO1ZqHBKjDYzIeMhRMIb4fwYf37WD39bHuOeeJX7G1Fs2vu32P5MCCi5YL4RpmT1cfSJDWyw-oo7eXTkdX17A2rqmKfdDUpKs1Sa9CwgH3WQBKYp1_z1k3cUNue3Z4iOSOP7hXMPRaVJo52CQ3V3t1k9C8pP3euvTmJph2RsRbeXkmNzhCGlUpHh7WsPKdYHMf6BpRFXDcpSbJvSEg1L9Oo_vtg0pnCzM4O_FqzsLZK3bM_KP9u5G326TvurMxJJAE5Baimv3wSaK16Kd34MyN_Fpr1Jd7zAP-0sLXS-Gh1-QveTw0zW-YqNsj47OCQabarYfK-WoRGTh1u1vqY8Qo8Zp_9DtvaKNw4-7- -5s9fmZsLsStWlniKBDLb8RJQE_pQ3A_vQRaQbih5uhOjPDCZvi37kV_U1NGZygoIQdjSg8dBNDANaNx1GLTWjQdOUVGQ6NKWvJXVuJs8NncNmodqnc_rSD8kXuvv_y9x9qUQPG6MLL2fcptp4-LFut-CjlbACXPazPH_jzbvf0NB3vivhsTszUtjtTvwnLZNBDRF6fErGcfpE_PbX-aBAPjlA37VQtTJdHFTmb_gpov6RPnQ9VFmlpNzgxcH-R-3zmf8puVWB]--></g></svg>