<?xml version="1.0" encoding="us-ascii" standalone="no"?><svg xmlns="http://www.w3.org/2000/svg" xmlns:xlink="http://www.w3.org/1999/xlink" contentStyleType="text/css" height="437px" preserveAspectRatio="none" style="width:1649px;height:437px;background:#FFFFFF;" version="1.1" viewBox="0 0 1649 437" width="1649px" zoomAndPan="magnify"><defs/><g><!--class ApplicationSource--><g id="elem_ApplicationSource"><rect codeLine="1" fill="#F1F1F1" height="171.2656" id="ApplicationSource" rx="2.5" ry="2.5" style="stroke:#181818;stroke-width:0.5;" width="220" x="1220" y="35.5"/><ellipse cx="1268.75" cy="51.5" fill="#ADD1B2" rx="11" ry="11" style="stroke:#181818;stroke-width:1.0;"/><path d="M1271.5156,47.375 Q1271.6719,47.1563 1271.8594,47.0469 Q1272.0469,46.9375 1272.2656,46.9375 Q1272.6406,46.9375 1272.875,47.2031 Q1273.1094,47.4531 1273.1094,48.0625 L1273.1094,49.5156 Q1273.1094,50.125 1272.875,50.3906 Q1272.6406,50.6563 1272.2656,50.6563 Q1271.9219,50.6563 1271.7188,50.4531 Q1271.5156,50.2656 1271.4063,49.75 Q1271.3594,49.3906 1271.1719,49.2031 Q1270.8438,48.8281 1270.2344,48.6094 Q1269.625,48.3906 1269,48.3906 Q1268.2344,48.3906 1267.5938,48.7188 Q1266.9688,49.0469 1266.4688,49.7969 Q1265.9844,50.5469 1265.9844,51.5781 L1265.9844,52.6719 Q1265.9844,53.9063 1266.875,54.7344 Q1267.7656,55.5469 1269.3594,55.5469 Q1270.2969,55.5469 1270.9531,55.2969 Q1271.3438,55.1406 1271.7656,54.7031 Q1272.0313,54.4375 1272.1719,54.3594 Q1272.3281,54.2813 1272.5313,54.2813 Q1272.8594,54.2813 1273.1094,54.5469 Q1273.375,54.7969 1273.375,55.1406 Q1273.375,55.4844 1273.0313,55.8906 Q1272.5313,56.4688 1271.7344,56.7969 Q1270.6563,57.25 1269.3594,57.25 Q1267.8438,57.25 1266.6406,56.625 Q1265.6563,56.125 1264.9688,55.0625 Q1264.2813,53.9844 1264.2813,52.7031 L1264.2813,51.5469 Q1264.2813,50.2188 1264.8906,49.0781 Q1265.5156,47.9219 1266.6094,47.3125 Q1267.7031,46.6875 1268.9375,46.6875 Q1269.6719,46.6875 1270.3125,46.8594 Q1270.9688,47.0156 1271.5156,47.375 Z " fill="#000000"/><text fill="#000000" font-family="sans-serif" font-size="14" lengthAdjust="spacing" textLength="114" x="1289.25" y="57.2285">ApplicationSource</text><line style="stroke:#181818;stroke-width:0.5;" x1="1221" x2="1439" y1="67.5" y2="67.5"/><rect fill="none" height="6" style="stroke:#C82930;stroke-width:1.0;" width="6" x="1228" y="78.8047"/><text fill="#000000" font-family="sans-serif" font-size="14" lengthAdjust="spacing" textLength="54" x="1240" y="86.0332">id: string</text><rect fill="none" height="6" style="stroke:#C82930;stroke-width:1.0;" width="6" x="1228" y="96.4141"/><text fill="#000000" font-family="sans-serif" font-size="14" lengthAdjust="spacing" textLength="95" x="1240" y="103.6426">priority: Priority</text><rect fill="none" height="6" style="stroke:#C82930;stroke-width:1.0;" width="6" x="1228" y="114.0234"/><text fill="#000000" font-family="sans-serif" font-size="14" lengthAdjust="spacing" textLength="78" x="1240" y="121.252">name: string</text><line style="stroke:#181818;stroke-width:0.5;" x1="1221" x2="1439" y1="128.3281" y2="128.3281"/><ellipse cx="1231" cy="142.6328" fill="#84BE84" rx="3" ry="3" style="stroke:#038048;stroke-width:1.0;"/><text fill="#000000" font-family="sans-serif" font-size="14" lengthAdjust="spacing" textLength="80" x="1240" y="146.8613">string getId()</text><ellipse cx="1231" cy="160.2422" fill="#84BE84" rx="3" ry="3" style="stroke:#038048;stroke-width:1.0;"/><text fill="#000000" font-family="sans-serif" font-size="14" lengthAdjust="spacing" textLength="105" x="1240" y="164.4707">string getName()</text><ellipse cx="1231" cy="177.8516" fill="#84BE84" rx="3" ry="3" style="stroke:#038048;stroke-width:1.0;"/><text fill="#000000" font-family="sans-serif" font-size="14" lengthAdjust="spacing" textLength="122" x="1240" y="182.0801">Priority getPriority()</text><ellipse cx="1231" cy="195.4609" fill="#84BE84" rx="3" ry="3" style="stroke:#038048;stroke-width:1.0;"/><text fill="#000000" font-family="sans-serif" font-size="14" lengthAdjust="spacing" textLength="194" x="1240" y="199.6895">void setPriority(Priority priority)</text></g><!--class Application--><g id="elem_Application"><rect codeLine="11" fill="#F1F1F1" height="188.875" id="Application" rx="2.5" ry="2.5" style="stroke:#181818;stroke-width:0.5;" width="205" x="1227.5" y="241.5"/><ellipse cx="1291.25" cy="257.5" fill="#ADD1B2" rx="11" ry="11" style="stroke:#181818;stroke-width:1.0;"/><path d="M1294.0156,253.375 Q1294.1719,253.1563 1294.3594,253.0469 Q1294.5469,252.9375 1294.7656,252.9375 Q1295.1406,252.9375 1295.375,253.2031 Q1295.6094,253.4531 1295.6094,254.0625 L1295.6094,255.5156 Q1295.6094,256.125 1295.375,256.3906 Q1295.1406,256.6563 1294.7656,256.6563 Q1294.4219,256.6563 1294.2188,256.4531 Q1294.0156,256.2656 1293.9063,255.75 Q1293.8594,255.3906 1293.6719,255.2031 Q1293.3438,254.8281 1292.7344,254.6094 Q1292.125,254.3906 1291.5,254.3906 Q1290.7344,254.3906 1290.0938,254.7188 Q1289.4688,255.0469 1288.9688,255.7969 Q1288.4844,256.5469 1288.4844,257.5781 L1288.4844,258.6719 Q1288.4844,259.9063 1289.375,260.7344 Q1290.2656,261.5469 1291.8594,261.5469 Q1292.7969,261.5469 1293.4531,261.2969 Q1293.8438,261.1406 1294.2656,260.7031 Q1294.5313,260.4375 1294.6719,260.3594 Q1294.8281,260.2813 1295.0313,260.2813 Q1295.3594,260.2813 1295.6094,260.5469 Q1295.875,260.7969 1295.875,261.1406 Q1295.875,261.4844 1295.5313,261.8906 Q1295.0313,262.4688 1294.2344,262.7969 Q1293.1563,263.25 1291.8594,263.25 Q1290.3438,263.25 1289.1406,262.625 Q1288.1563,262.125 1287.4688,261.0625 Q1286.7813,259.9844 1286.7813,258.7031 L1286.7813,257.5469 Q1286.7813,256.2188 1287.3906,255.0781 Q1288.0156,253.9219 1289.1094,253.3125 Q1290.2031,252.6875 1291.4375,252.6875 Q1292.1719,252.6875 1292.8125,252.8594 Q1293.4688,253.0156 1294.0156,253.375 Z " fill="#000000"/><text fill="#000000" font-family="sans-serif" font-size="14" lengthAdjust="spacing" textLength="69" x="1311.75" y="263.2285">Application</text><line style="stroke:#181818;stroke-width:0.5;" x1="1228.5" x2="1431.5" y1="273.5" y2="273.5"/><rect fill="none" height="6" style="stroke:#C82930;stroke-width:1.0;" width="6" x="1235.5" y="284.8047"/><text fill="#000000" font-family="sans-serif" font-size="14" lengthAdjust="spacing" textLength="54" x="1247.5" y="292.0332">id: string</text><rect fill="none" height="6" style="stroke:#C82930;stroke-width:1.0;" width="6" x="1235.5" y="302.4141"/><text fill="#000000" font-family="sans-serif" font-size="14" lengthAdjust="spacing" textLength="155" x="1247.5" y="309.6426">status: ApplicationStatus</text><rect fill="none" height="6" style="stroke:#C82930;stroke-width:1.0;" width="6" x="1235.5" y="320.0234"/><text fill="#000000" font-family="sans-serif" font-size="14" lengthAdjust="spacing" textLength="71" x="1247.5" y="327.252">data: string</text><rect fill="none" height="6" style="stroke:#C82930;stroke-width:1.0;" width="6" x="1235.5" y="337.6328"/><text fill="#000000" font-family="sans-serif" font-size="14" lengthAdjust="spacing" textLength="130" x="1247.5" y="344.8613">createdAt: DateTime</text><line style="stroke:#181818;stroke-width:0.5;" x1="1228.5" x2="1431.5" y1="351.9375" y2="351.9375"/><ellipse cx="1238.5" cy="366.2422" fill="#84BE84" rx="3" ry="3" style="stroke:#038048;stroke-width:1.0;"/><text fill="#000000" font-family="sans-serif" font-size="14" lengthAdjust="spacing" textLength="80" x="1247.5" y="370.4707">string getId()</text><ellipse cx="1238.5" cy="383.8516" fill="#84BE84" rx="3" ry="3" style="stroke:#038048;stroke-width:1.0;"/><text fill="#000000" font-family="sans-serif" font-size="14" lengthAdjust="spacing" textLength="179" x="1247.5" y="388.0801">DateTime getCreationDate()</text><ellipse cx="1238.5" cy="401.4609" fill="#84BE84" rx="3" ry="3" style="stroke:#038048;stroke-width:1.0;"/><text fill="#000000" font-family="sans-serif" font-size="14" lengthAdjust="spacing" textLength="124" x="1247.5" y="405.6895">void updateStatus()</text><ellipse cx="1238.5" cy="419.0703" fill="#84BE84" rx="3" ry="3" style="stroke:#038048;stroke-width:1.0;"/><text fill="#000000" font-family="sans-serif" font-size="14" lengthAdjust="spacing" textLength="89" x="1247.5" y="423.2988">void setData()</text></g><!--class ApplicationPacket--><g id="elem_ApplicationPacket"><rect codeLine="22" fill="#F1F1F1" height="171.2656" id="ApplicationPacket" rx="2.5" ry="2.5" style="stroke:#181818;stroke-width:0.5;" width="243" x="916" y="143.5"/><ellipse cx="977.25" cy="159.5" fill="#ADD1B2" rx="11" ry="11" style="stroke:#181818;stroke-width:1.0;"/><path d="M980.0156,155.375 Q980.1719,155.1563 980.3594,155.0469 Q980.5469,154.9375 980.7656,154.9375 Q981.1406,154.9375 981.375,155.2031 Q981.6094,155.4531 981.6094,156.0625 L981.6094,157.5156 Q981.6094,158.125 981.375,158.3906 Q981.1406,158.6563 980.7656,158.6563 Q980.4219,158.6563 980.2188,158.4531 Q980.0156,158.2656 979.9063,157.75 Q979.8594,157.3906 979.6719,157.2031 Q979.3438,156.8281 978.7344,156.6094 Q978.125,156.3906 977.5,156.3906 Q976.7344,156.3906 976.0938,156.7188 Q975.4688,157.0469 974.9688,157.7969 Q974.4844,158.5469 974.4844,159.5781 L974.4844,160.6719 Q974.4844,161.9063 975.375,162.7344 Q976.2656,163.5469 977.8594,163.5469 Q978.7969,163.5469 979.4531,163.2969 Q979.8438,163.1406 980.2656,162.7031 Q980.5313,162.4375 980.6719,162.3594 Q980.8281,162.2813 981.0313,162.2813 Q981.3594,162.2813 981.6094,162.5469 Q981.875,162.7969 981.875,163.1406 Q981.875,163.4844 981.5313,163.8906 Q981.0313,164.4688 980.2344,164.7969 Q979.1563,165.25 977.8594,165.25 Q976.3438,165.25 975.1406,164.625 Q974.1563,164.125 973.4688,163.0625 Q972.7813,161.9844 972.7813,160.7031 L972.7813,159.5469 Q972.7813,158.2188 973.3906,157.0781 Q974.0156,155.9219 975.1094,155.3125 Q976.2031,154.6875 977.4375,154.6875 Q978.1719,154.6875 978.8125,154.8594 Q979.4688,155.0156 980.0156,155.375 Z " fill="#000000"/><text fill="#000000" font-family="sans-serif" font-size="14" lengthAdjust="spacing" textLength="112" x="997.75" y="165.2285">ApplicationPacket</text><line style="stroke:#181818;stroke-width:0.5;" x1="917" x2="1158" y1="175.5" y2="175.5"/><rect fill="none" height="6" style="stroke:#C82930;stroke-width:1.0;" width="6" x="924" y="186.8047"/><text fill="#000000" font-family="sans-serif" font-size="14" lengthAdjust="spacing" textLength="54" x="936" y="194.0332">id: string</text><rect fill="none" height="6" style="stroke:#C82930;stroke-width:1.0;" width="6" x="924" y="204.4141"/><text fill="#000000" font-family="sans-serif" font-size="14" lengthAdjust="spacing" textLength="165" x="936" y="211.6426">source: ApplicationSource</text><rect fill="none" height="6" style="stroke:#C82930;stroke-width:1.0;" width="6" x="924" y="222.0234"/><text fill="#000000" font-family="sans-serif" font-size="14" lengthAdjust="spacing" textLength="190" x="936" y="229.252">applications: List&lt;Application&gt;</text><line style="stroke:#181818;stroke-width:0.5;" x1="917" x2="1158" y1="236.3281" y2="236.3281"/><ellipse cx="927" cy="250.6328" fill="#84BE84" rx="3" ry="3" style="stroke:#038048;stroke-width:1.0;"/><text fill="#000000" font-family="sans-serif" font-size="14" lengthAdjust="spacing" textLength="80" x="936" y="254.8613">string getId()</text><ellipse cx="927" cy="268.2422" fill="#84BE84" rx="3" ry="3" style="stroke:#038048;stroke-width:1.0;"/><text fill="#000000" font-family="sans-serif" font-size="14" lengthAdjust="spacing" textLength="193" x="936" y="272.4707">ApplicationSource getSource()</text><ellipse cx="927" cy="285.8516" fill="#84BE84" rx="3" ry="3" style="stroke:#038048;stroke-width:1.0;"/><text fill="#000000" font-family="sans-serif" font-size="14" lengthAdjust="spacing" textLength="217" x="936" y="290.0801">List&lt;Application&gt; getApplications()</text><ellipse cx="927" cy="303.4609" fill="#84BE84" rx="3" ry="3" style="stroke:#038048;stroke-width:1.0;"/><text fill="#000000" font-family="sans-serif" font-size="14" lengthAdjust="spacing" textLength="213" x="936" y="307.6895">Application getOldestApplication()</text></g><!--class Buffer--><g id="elem_Buffer"><rect codeLine="32" fill="#F1F1F1" height="206.4844" id="Buffer" rx="2.5" ry="2.5" style="stroke:#181818;stroke-width:0.5;" width="291" x="564" y="7"/><ellipse cx="686.25" cy="23" fill="#ADD1B2" rx="11" ry="11" style="stroke:#181818;stroke-width:1.0;"/><path d="M689.0156,18.875 Q689.1719,18.6563 689.3594,18.5469 Q689.5469,18.4375 689.7656,18.4375 Q690.1406,18.4375 690.375,18.7031 Q690.6094,18.9531 690.6094,19.5625 L690.6094,21.0156 Q690.6094,21.625 690.375,21.8906 Q690.1406,22.1563 689.7656,22.1563 Q689.4219,22.1563 689.2188,21.9531 Q689.0156,21.7656 688.9063,21.25 Q688.8594,20.8906 688.6719,20.7031 Q688.3438,20.3281 687.7344,20.1094 Q687.125,19.8906 686.5,19.8906 Q685.7344,19.8906 685.0938,20.2188 Q684.4688,20.5469 683.9688,21.2969 Q683.4844,22.0469 683.4844,23.0781 L683.4844,24.1719 Q683.4844,25.4063 684.375,26.2344 Q685.2656,27.0469 686.8594,27.0469 Q687.7969,27.0469 688.4531,26.7969 Q688.8438,26.6406 689.2656,26.2031 Q689.5313,25.9375 689.6719,25.8594 Q689.8281,25.7813 690.0313,25.7813 Q690.3594,25.7813 690.6094,26.0469 Q690.875,26.2969 690.875,26.6406 Q690.875,26.9844 690.5313,27.3906 Q690.0313,27.9688 689.2344,28.2969 Q688.1563,28.75 686.8594,28.75 Q685.3438,28.75 684.1406,28.125 Q683.1563,27.625 682.4688,26.5625 Q681.7813,25.4844 681.7813,24.2031 L681.7813,23.0469 Q681.7813,21.7188 682.3906,20.5781 Q683.0156,19.4219 684.1094,18.8125 Q685.2031,18.1875 686.4375,18.1875 Q687.1719,18.1875 687.8125,18.3594 Q688.4688,18.5156 689.0156,18.875 Z " fill="#000000"/><text fill="#000000" font-family="sans-serif" font-size="14" lengthAdjust="spacing" textLength="38" x="706.75" y="28.7285">Buffer</text><line style="stroke:#181818;stroke-width:0.5;" x1="565" x2="854" y1="39" y2="39"/><rect fill="none" height="6" style="stroke:#C82930;stroke-width:1.0;" width="6" x="572" y="50.3047"/><text fill="#000000" font-family="sans-serif" font-size="14" lengthAdjust="spacing" textLength="47" x="584" y="57.5332">size: int</text><rect fill="none" height="6" style="stroke:#C82930;stroke-width:1.0;" width="6" x="572" y="67.9141"/><text fill="#000000" font-family="sans-serif" font-size="14" lengthAdjust="spacing" textLength="74" x="584" y="75.1426">maxSize: int</text><rect fill="none" height="6" style="stroke:#C82930;stroke-width:1.0;" width="6" x="572" y="85.5234"/><text fill="#000000" font-family="sans-serif" font-size="14" lengthAdjust="spacing" textLength="207" x="584" y="92.752">packets: List&lt;ApplicationPacket&gt;</text><line style="stroke:#181818;stroke-width:0.5;" x1="565" x2="854" y1="99.8281" y2="99.8281"/><ellipse cx="575" cy="114.1328" fill="#84BE84" rx="3" ry="3" style="stroke:#038048;stroke-width:1.0;"/><text fill="#000000" font-family="sans-serif" font-size="14" lengthAdjust="spacing" textLength="265" x="584" y="118.3613">void addPacket(ApplicationPacket packet)</text><ellipse cx="575" cy="131.7422" fill="#84BE84" rx="3" ry="3" style="stroke:#038048;stroke-width:1.0;"/><text fill="#000000" font-family="sans-serif" font-size="14" lengthAdjust="spacing" textLength="130" x="584" y="135.9707">void removePacket()</text><ellipse cx="575" cy="149.3516" fill="#84BE84" rx="3" ry="3" style="stroke:#038048;stroke-width:1.0;"/><text fill="#000000" font-family="sans-serif" font-size="14" lengthAdjust="spacing" textLength="189" x="584" y="153.5801">ApplicationPacket getPacket()</text><ellipse cx="575" cy="166.9609" fill="#84BE84" rx="3" ry="3" style="stroke:#038048;stroke-width:1.0;"/><text fill="#000000" font-family="sans-serif" font-size="14" lengthAdjust="spacing" textLength="74" x="584" y="171.1895">bool isFull()</text><ellipse cx="575" cy="184.5703" fill="#84BE84" rx="3" ry="3" style="stroke:#038048;stroke-width:1.0;"/><text fill="#000000" font-family="sans-serif" font-size="14" lengthAdjust="spacing" textLength="107" x="584" y="188.7988">void addPacket()</text><rect fill="#F24D5C" height="6" style="stroke:#C82930;stroke-width:1.0;" width="6" x="572" y="199.1797"/><text fill="#000000" font-family="sans-serif" font-size="14" lengthAdjust="spacing" textLength="234" x="584" y="206.4082">ApplicationPacket getLowestPriority()</text></g><!--class Dispatcher--><g id="elem_Dispatcher"><rect codeLine="44" fill="#F1F1F1" height="100.8281" id="Dispatcher" rx="2.5" ry="2.5" style="stroke:#181818;stroke-width:0.5;" width="308" x="7" y="59.5"/><ellipse cx="122.75" cy="75.5" fill="#ADD1B2" rx="11" ry="11" style="stroke:#181818;stroke-width:1.0;"/><path d="M125.5156,71.375 Q125.6719,71.1563 125.8594,71.0469 Q126.0469,70.9375 126.2656,70.9375 Q126.6406,70.9375 126.875,71.2031 Q127.1094,71.4531 127.1094,72.0625 L127.1094,73.5156 Q127.1094,74.125 126.875,74.3906 Q126.6406,74.6563 126.2656,74.6563 Q125.9219,74.6563 125.7188,74.4531 Q125.5156,74.2656 125.4063,73.75 Q125.3594,73.3906 125.1719,73.2031 Q124.8438,72.8281 124.2344,72.6094 Q123.625,72.3906 123,72.3906 Q122.2344,72.3906 121.5938,72.7188 Q120.9688,73.0469 120.4688,73.7969 Q119.9844,74.5469 119.9844,75.5781 L119.9844,76.6719 Q119.9844,77.9063 120.875,78.7344 Q121.7656,79.5469 123.3594,79.5469 Q124.2969,79.5469 124.9531,79.2969 Q125.3438,79.1406 125.7656,78.7031 Q126.0313,78.4375 126.1719,78.3594 Q126.3281,78.2813 126.5313,78.2813 Q126.8594,78.2813 127.1094,78.5469 Q127.375,78.7969 127.375,79.1406 Q127.375,79.4844 127.0313,79.8906 Q126.5313,80.4688 125.7344,80.7969 Q124.6563,81.25 123.3594,81.25 Q121.8438,81.25 120.6406,80.625 Q119.6563,80.125 118.9688,79.0625 Q118.2813,77.9844 118.2813,76.7031 L118.2813,75.5469 Q118.2813,74.2188 118.8906,73.0781 Q119.5156,71.9219 120.6094,71.3125 Q121.7031,70.6875 122.9375,70.6875 Q123.6719,70.6875 124.3125,70.8594 Q124.9688,71.0156 125.5156,71.375 Z " fill="#000000"/><text fill="#000000" font-family="sans-serif" font-size="14" lengthAdjust="spacing" textLength="68" x="143.25" y="81.2285">Dispatcher</text><line style="stroke:#181818;stroke-width:0.5;" x1="8" x2="314" y1="91.5" y2="91.5"/><rect fill="none" height="6" style="stroke:#C82930;stroke-width:1.0;" width="6" x="15" y="102.8047"/><text fill="#000000" font-family="sans-serif" font-size="14" lengthAdjust="spacing" textLength="83" x="27" y="110.0332">buffer: Buffer</text><line style="stroke:#181818;stroke-width:0.5;" x1="8" x2="314" y1="117.1094" y2="117.1094"/><ellipse cx="18" cy="131.4141" fill="#84BE84" rx="3" ry="3" style="stroke:#038048;stroke-width:1.0;"/><text fill="#000000" font-family="sans-serif" font-size="14" lengthAdjust="spacing" textLength="282" x="27" y="135.6426">void writeToBuffer(ApplicationPacket packet)</text><ellipse cx="18" cy="149.0234" fill="#84BE84" rx="3" ry="3" style="stroke:#038048;stroke-width:1.0;"/><text fill="#000000" font-family="sans-serif" font-size="14" lengthAdjust="spacing" textLength="274" x="27" y="153.252">void closePacket(ApplicationPacket packet)</text></g><!--class Operator--><g id="elem_Operator"><rect codeLine="50" fill="#F1F1F1" height="118.4375" id="Operator" rx="2.5" ry="2.5" style="stroke:#181818;stroke-width:0.5;" width="226" x="48" y="209"/><ellipse cx="128.25" cy="225" fill="#ADD1B2" rx="11" ry="11" style="stroke:#181818;stroke-width:1.0;"/><path d="M131.0156,220.875 Q131.1719,220.6563 131.3594,220.5469 Q131.5469,220.4375 131.7656,220.4375 Q132.1406,220.4375 132.375,220.7031 Q132.6094,220.9531 132.6094,221.5625 L132.6094,223.0156 Q132.6094,223.625 132.375,223.8906 Q132.1406,224.1563 131.7656,224.1563 Q131.4219,224.1563 131.2188,223.9531 Q131.0156,223.7656 130.9063,223.25 Q130.8594,222.8906 130.6719,222.7031 Q130.3438,222.3281 129.7344,222.1094 Q129.125,221.8906 128.5,221.8906 Q127.7344,221.8906 127.0938,222.2188 Q126.4688,222.5469 125.9688,223.2969 Q125.4844,224.0469 125.4844,225.0781 L125.4844,226.1719 Q125.4844,227.4063 126.375,228.2344 Q127.2656,229.0469 128.8594,229.0469 Q129.7969,229.0469 130.4531,228.7969 Q130.8438,228.6406 131.2656,228.2031 Q131.5313,227.9375 131.6719,227.8594 Q131.8281,227.7813 132.0313,227.7813 Q132.3594,227.7813 132.6094,228.0469 Q132.875,228.2969 132.875,228.6406 Q132.875,228.9844 132.5313,229.3906 Q132.0313,229.9688 131.2344,230.2969 Q130.1563,230.75 128.8594,230.75 Q127.3438,230.75 126.1406,230.125 Q125.1563,229.625 124.4688,228.5625 Q123.7813,227.4844 123.7813,226.2031 L123.7813,225.0469 Q123.7813,223.7188 124.3906,222.5781 Q125.0156,221.4219 126.1094,220.8125 Q127.2031,220.1875 128.4375,220.1875 Q129.1719,220.1875 129.8125,220.3594 Q130.4688,220.5156 131.0156,220.875 Z " fill="#000000"/><text fill="#000000" font-family="sans-serif" font-size="14" lengthAdjust="spacing" textLength="57" x="148.75" y="230.7285">Operator</text><line style="stroke:#181818;stroke-width:0.5;" x1="49" x2="273" y1="241" y2="241"/><rect fill="none" height="6" style="stroke:#C82930;stroke-width:1.0;" width="6" x="56" y="252.3047"/><text fill="#000000" font-family="sans-serif" font-size="14" lengthAdjust="spacing" textLength="54" x="68" y="259.5332">id: string</text><rect fill="none" height="6" style="stroke:#C82930;stroke-width:1.0;" width="6" x="56" y="269.9141"/><text fill="#000000" font-family="sans-serif" font-size="14" lengthAdjust="spacing" textLength="76" x="68" y="277.1426">isBusy: bool</text><rect fill="none" height="6" style="stroke:#C82930;stroke-width:1.0;" width="6" x="56" y="287.5234"/><text fill="#000000" font-family="sans-serif" font-size="14" lengthAdjust="spacing" textLength="200" x="68" y="294.752">activePacket: ApplicationPacket</text><line style="stroke:#181818;stroke-width:0.5;" x1="49" x2="273" y1="301.8281" y2="301.8281"/><ellipse cx="59" cy="316.1328" fill="#84BE84" rx="3" ry="3" style="stroke:#038048;stroke-width:1.0;"/><text fill="#000000" font-family="sans-serif" font-size="14" lengthAdjust="spacing" textLength="133" x="68" y="320.3613">void processPacket()</text></g><!--class Priority--><g id="elem_Priority"><rect codeLine="57" fill="#F1F1F1" height="110.4375" id="Priority" rx="2.5" ry="2.5" style="stroke:#181818;stroke-width:0.5;" width="114" x="1514.5" y="66"/><ellipse cx="1546.6" cy="82" fill="#EB937F" rx="11" ry="11" style="stroke:#181818;stroke-width:1.0;"/><path d="M1545.4594,82.7969 L1545.4594,85.2969 L1549.7875,85.2969 L1549.7875,84.375 Q1549.7875,83.7656 1550.0219,83.5 Q1550.2719,83.2344 1550.6469,83.2344 Q1551.0219,83.2344 1551.2563,83.5 Q1551.4906,83.7656 1551.4906,84.375 L1551.4906,87 L1543.4906,87 Q1542.8656,87 1542.6,86.7656 Q1542.35,86.5313 1542.35,86.1406 Q1542.35,85.7656 1542.6156,85.5313 Q1542.8813,85.2969 1543.4906,85.2969 L1543.7563,85.2969 L1543.7563,78.6406 L1543.4906,78.6406 Q1542.8656,78.6406 1542.6,78.4063 Q1542.35,78.1719 1542.35,77.7813 Q1542.35,77.4063 1542.6,77.1719 Q1542.8656,76.9375 1543.4906,76.9375 L1551.1156,76.9375 L1551.1156,79.5313 Q1551.1156,80.1406 1550.8813,80.4063 Q1550.6625,80.6563 1550.2719,80.6563 Q1549.8969,80.6563 1549.6625,80.4063 Q1549.4281,80.1406 1549.4281,79.5313 L1549.4281,78.6406 L1545.4594,78.6406 L1545.4594,81.0938 L1546.9438,81.0938 Q1546.9438,80.4375 1547.0688,80.25 Q1547.3344,79.8438 1547.8031,79.8438 Q1548.1781,79.8438 1548.4125,80.1094 Q1548.6469,80.3594 1548.6469,80.9688 L1548.6469,82.9375 Q1548.6469,83.4844 1548.5219,83.6719 Q1548.2563,84.0625 1547.8031,84.0625 Q1547.3344,84.0625 1547.0688,83.6563 Q1546.9438,83.4688 1546.9438,82.7969 L1545.4594,82.7969 Z " fill="#000000"/><text fill="#000000" font-family="sans-serif" font-size="14" lengthAdjust="spacing" textLength="44" x="1564.4" y="87.7285">Priority</text><line style="stroke:#181818;stroke-width:0.5;" x1="1515.5" x2="1627.5" y1="98" y2="98"/><text fill="#000000" font-family="sans-serif" font-size="14" lengthAdjust="spacing" textLength="56" x="1520.5" y="116.5332">LOW = 0</text><text fill="#000000" font-family="sans-serif" font-size="14" lengthAdjust="spacing" textLength="85" x="1520.5" y="134.1426">MEDIUM = 10</text><text fill="#000000" font-family="sans-serif" font-size="14" lengthAdjust="spacing" textLength="64" x="1520.5" y="151.752">HIGH = 20</text><text fill="#000000" font-family="sans-serif" font-size="14" lengthAdjust="spacing" textLength="102" x="1520.5" y="169.3613">CRITICAL = 100</text></g><!--class ApplicationStatus--><g id="elem_ApplicationStatus"><rect codeLine="64" fill="#F1F1F1" height="128.0469" id="ApplicationStatus" rx="2.5" ry="2.5" style="stroke:#181818;stroke-width:0.5;" width="141" x="1501" y="272"/><ellipse cx="1516" cy="288" fill="#EB937F" rx="11" ry="11" style="stroke:#181818;stroke-width:1.0;"/><path d="M1514.8594,288.7969 L1514.8594,291.2969 L1519.1875,291.2969 L1519.1875,290.375 Q1519.1875,289.7656 1519.4219,289.5 Q1519.6719,289.2344 1520.0469,289.2344 Q1520.4219,289.2344 1520.6563,289.5 Q1520.8906,289.7656 1520.8906,290.375 L1520.8906,293 L1512.8906,293 Q1512.2656,293 1512,292.7656 Q1511.75,292.5313 1511.75,292.1406 Q1511.75,291.7656 1512.0156,291.5313 Q1512.2813,291.2969 1512.8906,291.2969 L1513.1563,291.2969 L1513.1563,284.6406 L1512.8906,284.6406 Q1512.2656,284.6406 1512,284.4063 Q1511.75,284.1719 1511.75,283.7813 Q1511.75,283.4063 1512,283.1719 Q1512.2656,282.9375 1512.8906,282.9375 L1520.5156,282.9375 L1520.5156,285.5313 Q1520.5156,286.1406 1520.2813,286.4063 Q1520.0625,286.6563 1519.6719,286.6563 Q1519.2969,286.6563 1519.0625,286.4063 Q1518.8281,286.1406 1518.8281,285.5313 L1518.8281,284.6406 L1514.8594,284.6406 L1514.8594,287.0938 L1516.3438,287.0938 Q1516.3438,286.4375 1516.4688,286.25 Q1516.7344,285.8438 1517.2031,285.8438 Q1517.5781,285.8438 1517.8125,286.1094 Q1518.0469,286.3594 1518.0469,286.9688 L1518.0469,288.9375 Q1518.0469,289.4844 1517.9219,289.6719 Q1517.6563,290.0625 1517.2031,290.0625 Q1516.7344,290.0625 1516.4688,289.6563 Q1516.3438,289.4688 1516.3438,288.7969 L1514.8594,288.7969 Z " fill="#000000"/><text fill="#000000" font-family="sans-serif" font-size="14" lengthAdjust="spacing" textLength="109" x="1530" y="293.7285">ApplicationStatus</text><line style="stroke:#181818;stroke-width:0.5;" x1="1502" x2="1641" y1="304" y2="304"/><text fill="#000000" font-family="sans-serif" font-size="14" lengthAdjust="spacing" textLength="55" x="1507" y="322.5332">NEW = 0</text><text fill="#000000" font-family="sans-serif" font-size="14" lengthAdjust="spacing" textLength="106" x="1507" y="340.1426">BUFFERED = 10</text><text fill="#000000" font-family="sans-serif" font-size="14" lengthAdjust="spacing" textLength="122" x="1507" y="357.752">PROCESSING = 20</text><text fill="#000000" font-family="sans-serif" font-size="14" lengthAdjust="spacing" textLength="118" x="1507" y="375.3613">PROCESSED = 30</text><text fill="#000000" font-family="sans-serif" font-size="14" lengthAdjust="spacing" textLength="112" x="1507" y="392.9707">REJECTED = 100</text></g><!--link ApplicationSource to Priority--><g id="link_ApplicationSource_Priority"><path codeLine="72" d="M1440.24,121 C1465.9,121 1486.21,121 1508.4,121 " fill="none" id="ApplicationSource-to-Priority" style="stroke:#181818;stroke-width:1.0;"/><polygon fill="#181818" points="1514.4,121,1505.4,117,1509.4,121,1505.4,125,1514.4,121" style="stroke:#181818;stroke-width:1.0;"/></g><!--link Application to ApplicationStatus--><g id="link_Application_ApplicationStatus"><path codeLine="73" d="M1432.57,336 C1455.52,336 1473.38,336 1494.67,336 " fill="none" id="Application-to-ApplicationStatus" style="stroke:#181818;stroke-width:1.0;"/><polygon fill="#181818" points="1500.67,336,1491.67,332,1495.67,336,1491.67,340,1500.67,336" style="stroke:#181818;stroke-width:1.0;"/></g><!--link ApplicationPacket to ApplicationSource--><g id="link_ApplicationPacket_ApplicationSource"><path codeLine="74" d="M1159.17,184.14 C1179.28,176.66 1194.416,171.0305 1214.216,163.6705 " fill="none" id="ApplicationPacket-to-ApplicationSource" style="stroke:#181818;stroke-width:1.0;"/><polygon fill="#181818" points="1219.84,161.58,1210.0103,160.9665,1215.1533,163.3221,1212.7977,168.4652,1219.84,161.58" style="stroke:#181818;stroke-width:1.0;"/></g><!--link ApplicationPacket to Application--><g id="link_ApplicationPacket_Application"><path codeLine="75" d="M1159.17,273.45 C1181.78,281.77 1193.9398,286.2518 1215.8998,294.3418 " fill="none" id="ApplicationPacket-to-Application" style="stroke:#181818;stroke-width:1.0;"/><polygon fill="#181818" points="1227.16,298.49,1222.9126,292.6625,1215.8998,294.3418,1220.1472,300.1693,1227.16,298.49" style="stroke:#181818;stroke-width:1.0;"/><text fill="#000000" font-family="sans-serif" font-size="13" lengthAdjust="spacing" textLength="20" x="1199.5786" y="310.0184">0..*</text></g><!--link Operator to ApplicationPacket--><g id="link_Operator_ApplicationPacket"><path codeLine="76" d="M274.27,274.09 C411.61,280.03 651.04,285.48 855,265 C874.82,263.01 883.8664,261.9771 904.1064,258.3671 " fill="none" id="Operator-to-ApplicationPacket" style="stroke:#181818;stroke-width:1.0;"/><polygon fill="none" points="915.92,256.26,909.3109,253.3757,904.1064,258.3671,910.7156,261.2514,915.92,256.26" style="stroke:#181818;stroke-width:1.0;"/><text fill="#000000" font-family="sans-serif" font-size="13" lengthAdjust="spacing" textLength="189" x="615" y="245.4951">&#1054;&#1073;&#1088;&#1072;&#1073;&#1072;&#1090;&#1099;&#1074;&#1072;&#1077;&#1090; &#1079;&#1072;&#1103;&#1074;&#1082;&#1080; &#1080;&#1079; &#1087;&#1072;&#1082;&#1077;&#1090;&#1072;</text><text fill="#000000" font-family="sans-serif" font-size="13" lengthAdjust="spacing" textLength="95" x="662" y="261.8467">processPacket()</text><text fill="#000000" font-family="sans-serif" font-size="13" lengthAdjust="spacing" textLength="22" x="885.8409" y="271.9064">0..1</text></g><!--link Dispatcher to Buffer--><g id="link_Dispatcher_Buffer"><path codeLine="77" d="M315.32,110 C393.15,110 475.17,110 551.76,110 " fill="none" id="Dispatcher-to-Buffer" style="stroke:#181818;stroke-width:1.0;"/><polygon fill="#181818" points="563.76,110,557.76,106,551.76,110,557.76,114,563.76,110" style="stroke:#181818;stroke-width:1.0;"/><text fill="#000000" font-family="sans-serif" font-size="13" lengthAdjust="spacing" textLength="187" x="346" y="90.4951">&#1047;&#1072;&#1087;&#1086;&#1083;&#1085;&#1103;&#1077;&#1090; &#1073;&#1091;&#1092;&#1077;&#1088; &#1087;&#1086; &#1082;&#1088;&#1080;&#1090;&#1077;&#1088;&#1080;&#1103;&#1084;</text><text fill="#000000" font-family="sans-serif" font-size="13" lengthAdjust="spacing" textLength="82" x="398.5" y="106.8467">writeToBuffer()</text><text fill="#000000" font-family="sans-serif" font-size="13" lengthAdjust="spacing" textLength="22" x="534.1679" y="123.8794">1..1</text></g><!--link Buffer to ApplicationPacket--><g id="link_Buffer_ApplicationPacket"><path codeLine="78" d="M855.39,162.89 C875.62,170.27 884.9678,173.6844 904.6878,180.8844 " fill="none" id="Buffer-to-ApplicationPacket" style="stroke:#181818;stroke-width:1.0;"/><polygon fill="none" points="915.96,185,911.6958,179.1848,904.6878,180.8844,908.952,186.6996,915.96,185" style="stroke:#181818;stroke-width:1.0;"/><text fill="#000000" font-family="sans-serif" font-size="13" lengthAdjust="spacing" textLength="20" x="887.9443" y="196.304">0..*</text></g><!--link Operator to Buffer--><g id="link_Operator_Buffer"><path codeLine="80" d="M274.24,235.55 C358.03,211.32 467.4661,179.6865 558.1561,153.4665 " fill="none" id="Operator-to-Buffer" style="stroke:#181818;stroke-width:1.0;stroke-dasharray:7.0,7.0;"/><polygon fill="#181818" points="563.92,151.8,554.1631,150.4571,559.1167,153.1887,556.3851,158.1423,563.92,151.8" style="stroke:#181818;stroke-width:1.0;"/><text fill="#000000" font-family="sans-serif" font-size="13" lengthAdjust="spacing" textLength="124" x="377.5" y="142.4951">&#1047;&#1072;&#1087;&#1088;&#1072;&#1096;&#1080;&#1074;&#1072;&#1077;&#1090; &#1079;&#1072;&#1103;&#1074;&#1082;&#1091;</text><text fill="#000000" font-family="sans-serif" font-size="13" lengthAdjust="spacing" textLength="67" x="406" y="158.8467">getPacket()</text></g><!--SRC=[ZLJDJXin43udJs5nebI9eBsjsaWaMMYgG50Ir0iNisl0wkvwPNkXFwg4e8TAFN3ihSy0bH28jl0AtZVgsBkRE7YhzhJZRpxFp3SptaOGOI7GUff6DC2IicJ2CXuGzB7PQBHew24XEKqEzIdbb74gttjefxGqck2OMAodXOKEYHo4oqyMaMtW5bWLGQELNNYE6GsHiD0PjSeFj4_DPiEflAvc8R7CXBSWq43Q6MA9RNB02POaN9SUweCnfJ6fLrHvDTRJbo2inYm5MGhHIP5hKHWGyVBVDEpWu2sHjKhCN3ntLDg9vo287L8XNrYyJhqAT-ZWBAo2uCJH1Eiid3YQC8f28cpQejXkTd10UA5Gq0-WY2PI7sByRcAVKzEA6Zb5Zpgpdk8mBA1bjv55a7d_EOdPCIdfZwilx-YLj0ZxZ4M8YeqiYgn1pfDgh5KRPSXEe1FsUi_RqASYnJ8ugbgnRzhYbUsPfJc1csJA2lG_z0KH4-JVtPZNCKe9nvBnkfMZefi9UEww0sRB0achvddkriwAI3aBY13p_kXq9CdYsO_3P1kEtg2NQ1MiBRy_sDs2mve-lHfilWBxcRPxuy5qq5iV6j-g5Sbvq2Rajb-5xEvkRFXZlry5tHcFUlvaCjZUh4ANYA4yry3OV-ttfkMLCfVxHbgjZlN_itTVUsh-C-uO7XFBP-mIWRc2bbRRxPKb-qApCPjQgyKCOMt9dOU7r7TrbP-gItMbBlEp_Alw0VPrVeRK3G0NSBnJjqZTgXka7i1rfvtgSYzn9cYjgwbfpQJibakhli7b1tMlVghV4DPakChFyyzWdkhGzqZTGI6t4FtQV2_KhxraSRaXI_blg4Ijr8XgMkBRxSwZ4hJO_0i8SeNcvtk9_RARZICQ4aJY5DOn9l4-uJ2iY1n891dYzF18ef1o4kZSVm00]--></g></svg>