<?xml version="1.0" encoding="us-ascii" standalone="no"?><svg xmlns="http://www.w3.org/2000/svg" xmlns:xlink="http://www.w3.org/1999/xlink" contentStyleType="text/css" height="686px" preserveAspectRatio="none" style="width:1752px;height:686px;background:#FFFFFF;" version="1.1" viewBox="0 0 1752 686" width="1752px" zoomAndPan="magnify"><defs/><g><rect fill="none" height="22.6406" style="stroke:none;stroke-width:1.0;" width="1719" x="15" y="12.4551"/><line style="stroke:none;stroke-width:1.5;" x1="109.5" x2="208" y1="40.0957" y2="40.0957"/><ellipse cx="109.5" cy="100.8848" fill="#222222" rx="10" ry="10" style="stroke:#222222;stroke-width:1.0;"/><rect fill="#F1F1F1" height="35.0938" style="stroke:#181818;stroke-width:0.5;" width="177" x="21" y="140.1895"/><text fill="#000000" font-family="sans-serif" font-size="12" lengthAdjust="spacing" textLength="157" x="31" y="162.6465">&#1054;&#1090;&#1087;&#1088;&#1072;&#1074;&#1080;&#1090;&#1100; &#1079;&#1072;&#1103;&#1074;&#1082;&#1091; &#1074; &#1089;&#1080;&#1089;&#1090;&#1077;&#1084;&#1091;</text><line style="stroke:#000000;stroke-width:1.5;" x1="15" x2="15" y1="12.4551" y2="674.3926"/><rect fill="#F1F1F1" height="35.0938" rx="12.5" ry="12.5" style="stroke:#181818;stroke-width:0.5;" width="210" x="219" y="204.5879"/><text fill="#000000" font-family="sans-serif" font-size="12" lengthAdjust="spacing" textLength="190" x="229" y="227.0449">&#1054;&#1087;&#1088;&#1077;&#1076;&#1077;&#1083;&#1077;&#1085;&#1080;&#1077; &#1087;&#1088;&#1080;&#1086;&#1088;&#1080;&#1090;&#1077;&#1090;&#1072; &#1079;&#1072;&#1103;&#1074;&#1082;&#1080;</text><rect fill="#F1F1F1" height="35.0938" style="stroke:#181818;stroke-width:0.5;" width="167" x="240.5" y="274.6816"/><text fill="#000000" font-family="sans-serif" font-size="12" lengthAdjust="spacing" textLength="147" x="250.5" y="297.1387">&#1054;&#1090;&#1087;&#1088;&#1072;&#1074;&#1080;&#1090;&#1100; &#1079;&#1072;&#1103;&#1074;&#1082;&#1091; &#1074; &#1073;&#1091;&#1092;&#1077;&#1088;</text><rect fill="#F1F1F1" height="35.0938" rx="12.5" ry="12.5" style="stroke:#181818;stroke-width:0.5;" width="190" x="476.5" y="266.2285"/><text fill="#000000" font-family="sans-serif" font-size="12" lengthAdjust="spacing" textLength="170" x="486.5" y="288.6855">&#1048;&#1079;&#1084;&#1077;&#1085;&#1077;&#1085;&#1080;&#1077; &#1089;&#1086;&#1089;&#1090;&#1086;&#1103;&#1085;&#1080;&#1103; &#1079;&#1072;&#1103;&#1074;&#1082;&#1080;</text><rect fill="#F1F1F1" height="35.0938" style="stroke:#181818;stroke-width:0.5;" width="265" x="439" y="329.7754"/><text fill="#000000" font-family="sans-serif" font-size="12" lengthAdjust="spacing" textLength="245" x="449" y="352.2324">&#1057;&#1086;&#1086;&#1073;&#1097;&#1080;&#1090;&#1100; &#1086;&#1073; &#1080;&#1079;&#1084;&#1077;&#1085;&#1077;&#1085;&#1080;&#1080; &#1089;&#1090;&#1072;&#1090;&#1091;&#1089;&#1072; &#1080;&#1089;&#1090;&#1086;&#1095;&#1085;&#1080;&#1082;&#1091;</text><ellipse cx="571.5" cy="410.8691" fill="none" rx="11" ry="11" style="stroke:#222222;stroke-width:1.0;"/><ellipse cx="571.5" cy="410.8691" fill="#222222" rx="6" ry="6" style="stroke:#222222;stroke-width:1.0;"/><line style="stroke:#000000;stroke-width:1.5;" x1="213" x2="213" y1="12.4551" y2="674.3926"/><polygon fill="#F1F1F1" points="909,338.2285,1025,338.2285,1037,350.2285,1025,362.2285,909,362.2285,897,350.2285,909,338.2285" style="stroke:#181818;stroke-width:0.5;"/><text fill="#000000" font-family="sans-serif" font-size="11" lengthAdjust="spacing" textLength="116" x="909" y="354.7295">&#1045;&#1089;&#1090;&#1100; &#1084;&#1077;&#1089;&#1090;&#1086; &#1074; &#1073;&#1091;&#1092;&#1077;&#1088;&#1077;?</text><text fill="#000000" font-family="sans-serif" font-size="11" lengthAdjust="spacing" textLength="12" x="885" y="347.8115">&#1076;&#1072;</text><text fill="#000000" font-family="sans-serif" font-size="11" lengthAdjust="spacing" textLength="18" x="1037" y="347.8115">&#1085;&#1077;&#1090;</text><rect fill="#98FB98" height="35.0938" style="stroke:#181818;stroke-width:0.5;" width="179" x="714" y="372.2285"/><text fill="#000000" font-family="sans-serif" font-size="12" lengthAdjust="spacing" textLength="159" x="724" y="394.6855">&#1055;&#1086;&#1089;&#1090;&#1072;&#1074;&#1080;&#1090;&#1100; &#1079;&#1072;&#1103;&#1074;&#1082;&#1091; &#1074; &#1086;&#1095;&#1077;&#1088;&#1077;&#1076;&#1100;</text><rect fill="#F1F1F1" height="50.1875" rx="12.5" ry="12.5" style="stroke:#181818;stroke-width:0.5;" width="185" x="1038" y="372.2285"/><text fill="#000000" font-family="sans-serif" font-size="12" lengthAdjust="spacing" textLength="165" x="1048" y="394.6855">&#1055;&#1086;&#1080;&#1089;&#1082; &#1079;&#1072;&#1103;&#1074;&#1082;&#1080; &#1089; &#1085;&#1072;&#1080;&#1084;&#1077;&#1085;&#1100;&#1096;&#1080;&#1084;</text><text fill="#000000" font-family="sans-serif" font-size="12" lengthAdjust="spacing" textLength="75" x="1048" y="409.7793">&#1087;&#1088;&#1080;&#1086;&#1088;&#1080;&#1090;&#1077;&#1090;&#1086;&#1084;</text><polygon fill="#F1F1F1" points="1038,457.416,1223,457.416,1235,469.416,1223,481.416,1038,481.416,1026,469.416,1038,457.416" style="stroke:#181818;stroke-width:0.5;"/><text fill="#000000" font-family="sans-serif" font-size="11" lengthAdjust="spacing" textLength="185" x="1038" y="473.917">&#1055;&#1088;&#1080;&#1086;&#1088;&#1080;&#1090;&#1077;&#1090; &#1074;&#1093;&#1086;&#1076;&#1103;&#1097;&#1077;&#1081; &#1079;&#1072;&#1103;&#1074;&#1082;&#1080; &#1074;&#1099;&#1096;&#1077;?</text><text fill="#000000" font-family="sans-serif" font-size="11" lengthAdjust="spacing" textLength="12" x="1014" y="466.999">&#1076;&#1072;</text><text fill="#000000" font-family="sans-serif" font-size="11" lengthAdjust="spacing" textLength="18" x="1235" y="466.999">&#1085;&#1077;&#1090;</text><rect fill="#F1F1F1" height="35.0938" style="stroke:#181818;stroke-width:0.5;" width="186" x="923" y="491.416"/><text fill="#000000" font-family="sans-serif" font-size="12" lengthAdjust="spacing" textLength="166" x="933" y="513.873">&#1054;&#1090;&#1082;&#1083;&#1086;&#1085;&#1080;&#1090;&#1100; &#1085;&#1072;&#1081;&#1076;&#1077;&#1085;&#1085;&#1091;&#1102; &#1079;&#1072;&#1103;&#1074;&#1082;&#1091;</text><rect fill="#98FB98" height="35.0938" style="stroke:#181818;stroke-width:0.5;" width="179" x="926.5" y="561.5098"/><text fill="#000000" font-family="sans-serif" font-size="12" lengthAdjust="spacing" textLength="159" x="936.5" y="583.9668">&#1055;&#1086;&#1089;&#1090;&#1072;&#1074;&#1080;&#1090;&#1100; &#1079;&#1072;&#1103;&#1074;&#1082;&#1091; &#1074; &#1086;&#1095;&#1077;&#1088;&#1077;&#1076;&#1100;</text><rect fill="#F1F1F1" height="35.0938" style="stroke:#181818;stroke-width:0.5;" width="120" x="1185" y="491.416"/><text fill="#000000" font-family="sans-serif" font-size="12" lengthAdjust="spacing" textLength="100" x="1195" y="513.873">&#1054;&#1090;&#1082;&#1083;&#1086;&#1085;&#1080;&#1090;&#1100; &#1079;&#1072;&#1103;&#1074;&#1082;&#1091;</text><ellipse cx="1245" cy="572.5098" fill="none" rx="11" ry="11" style="stroke:#222222;stroke-width:1.0;"/><ellipse cx="1245" cy="572.5098" fill="#222222" rx="6" ry="6" style="stroke:#222222;stroke-width:1.0;"/><rect fill="#F1F1F1" height="35.0938" rx="12.5" ry="12.5" style="stroke:#181818;stroke-width:0.5;" width="184" x="1315" y="149.4941"/><text fill="#000000" font-family="sans-serif" font-size="12" lengthAdjust="spacing" textLength="164" x="1325" y="171.9512">&#1055;&#1086;&#1080;&#1089;&#1082; &#1087;&#1088;&#1080;&#1086;&#1088;&#1080;&#1090;&#1077;&#1090;&#1085;&#1086;&#1075;&#1086; &#1087;&#1072;&#1082;&#1077;&#1090;&#1072;</text><rect fill="#F1F1F1" height="35.0938" style="stroke:#181818;stroke-width:0.5;" width="178" x="1318" y="262.8105"/><text fill="#000000" font-family="sans-serif" font-size="12" lengthAdjust="spacing" textLength="158" x="1328" y="285.2676">&#1055;&#1077;&#1088;&#1077;&#1076;&#1072;&#1090;&#1100; &#1087;&#1072;&#1082;&#1077;&#1090; &#1076;&#1080;&#1089;&#1087;&#1077;&#1090;&#1095;&#1077;&#1088;&#1091;</text><polygon fill="#F1F1F1" points="1369.5,213.8926,1444.5,213.8926,1456.5,225.8926,1444.5,237.8926,1369.5,237.8926,1357.5,225.8926,1369.5,213.8926" style="stroke:#181818;stroke-width:0.5;"/><text fill="#000000" font-family="sans-serif" font-size="11" lengthAdjust="spacing" textLength="12" x="1411" y="249.3115">&#1076;&#1072;</text><text fill="#000000" font-family="sans-serif" font-size="11" lengthAdjust="spacing" textLength="75" x="1369.5" y="230.3936">&#1055;&#1072;&#1082;&#1077;&#1090; &#1085;&#1072;&#1081;&#1076;&#1077;&#1085;?</text><text fill="#000000" font-family="sans-serif" font-size="11" lengthAdjust="spacing" textLength="18" x="1456.5" y="223.4756">&#1085;&#1077;&#1090;</text><ellipse cx="1496.5" cy="225.8926" fill="none" rx="11" ry="11" style="stroke:#222222;stroke-width:1.0;"/><ellipse cx="1496.5" cy="225.8926" fill="#222222" rx="6" ry="6" style="stroke:#222222;stroke-width:1.0;"/><line style="stroke:#000000;stroke-width:1.5;" x1="708" x2="708" y1="12.4551" y2="674.3926"/><ellipse cx="1623" cy="55.0957" fill="#222222" rx="10" ry="10" style="stroke:#222222;stroke-width:1.0;"/><rect fill="#F1F1F1" height="35.0938" style="stroke:#181818;stroke-width:0.5;" width="211" x="1517.5" y="85.0957"/><text fill="#000000" font-family="sans-serif" font-size="12" lengthAdjust="spacing" textLength="191" x="1527.5" y="107.5527">&#1047;&#1072;&#1087;&#1088;&#1086;&#1089;&#1080;&#1090;&#1100; &#1087;&#1072;&#1082;&#1077;&#1090; &#1079;&#1072;&#1103;&#1074;&#1086;&#1082; &#1074; &#1073;&#1091;&#1092;&#1077;&#1088;&#1077;</text><rect fill="#F1F1F1" height="35.0938" style="stroke:#181818;stroke-width:0.5;" width="124" x="1561" y="413.1113"/><text fill="#000000" font-family="sans-serif" font-size="12" lengthAdjust="spacing" textLength="104" x="1571" y="435.5684">&#1054;&#1073;&#1088;&#1072;&#1073;&#1086;&#1090;&#1082;&#1072; &#1079;&#1072;&#1103;&#1074;&#1082;&#1080;</text><polygon fill="#F1F1F1" points="1571.5,351.2754,1674.5,351.2754,1686.5,363.2754,1674.5,375.2754,1571.5,375.2754,1559.5,363.2754,1571.5,351.2754" style="stroke:#181818;stroke-width:0.5;"/><text fill="#000000" font-family="sans-serif" font-size="11" lengthAdjust="spacing" textLength="18" x="1627" y="386.6943">&#1085;&#1077;&#1090;</text><text fill="#000000" font-family="sans-serif" font-size="11" lengthAdjust="spacing" textLength="103" x="1571.5" y="367.7764">&#1047;&#1072;&#1103;&#1074;&#1082;&#1072; &#1074;&#1099;&#1087;&#1086;&#1083;&#1085;&#1077;&#1085;&#1072;?</text><text fill="#000000" font-family="sans-serif" font-size="11" lengthAdjust="spacing" textLength="12" x="1547.5" y="360.8584">&#1076;&#1072;</text><rect fill="#F1F1F1" height="35.0938" style="stroke:#181818;stroke-width:0.5;" width="206" x="1520" y="507.2051"/><text fill="#000000" font-family="sans-serif" font-size="12" lengthAdjust="spacing" textLength="186" x="1530" y="529.6621">&#1047;&#1072;&#1087;&#1080;&#1089;&#1072;&#1090;&#1100; &#1088;&#1077;&#1079;&#1091;&#1083;&#1100;&#1090;&#1072;&#1090; &#1074;&#1099;&#1087;&#1086;&#1083;&#1085;&#1077;&#1085;&#1080;&#1103;</text><rect fill="#F1F1F1" height="35.0938" style="stroke:#181818;stroke-width:0.5;" width="108" x="1569" y="577.2988"/><text fill="#000000" font-family="sans-serif" font-size="12" lengthAdjust="spacing" textLength="88" x="1579" y="599.7559">&#1047;&#1072;&#1082;&#1088;&#1099;&#1090;&#1100; &#1079;&#1072;&#1103;&#1074;&#1082;&#1091;</text><ellipse cx="1623" cy="643.3926" fill="none" rx="11" ry="11" style="stroke:#222222;stroke-width:1.0;"/><ellipse cx="1623" cy="643.3926" fill="#222222" rx="6" ry="6" style="stroke:#222222;stroke-width:1.0;"/><line style="stroke:#000000;stroke-width:1.5;" x1="1511.5" x2="1511.5" y1="12.4551" y2="674.3926"/><line style="stroke:#000000;stroke-width:1.5;" x1="1732.5" x2="1732.5" y1="12.4551" y2="674.3926"/><line style="stroke:#181818;stroke-width:1.0;" x1="109.5" x2="109.5" y1="110.8848" y2="140.1895"/><polygon fill="#181818" points="105.5,130.1895,109.5,140.1895,113.5,130.1895,109.5,134.1895" style="stroke:#181818;stroke-width:1.0;"/><line style="stroke:#181818;stroke-width:1.0;" x1="324" x2="324" y1="239.6816" y2="274.6816"/><polygon fill="#181818" points="320,264.6816,324,274.6816,328,264.6816,324,268.6816" style="stroke:#181818;stroke-width:1.0;"/><line style="stroke:#181818;stroke-width:1.0;" x1="571.5" x2="571.5" y1="301.3223" y2="329.7754"/><polygon fill="#181818" points="567.5,319.7754,571.5,329.7754,575.5,319.7754,571.5,323.7754" style="stroke:#181818;stroke-width:1.0;"/><line style="stroke:#181818;stroke-width:1.0;" x1="571.5" x2="571.5" y1="364.8691" y2="399.8691"/><polygon fill="#181818" points="567.5,389.8691,571.5,399.8691,575.5,389.8691,571.5,393.8691" style="stroke:#181818;stroke-width:1.0;"/><line style="stroke:#181818;stroke-width:1.0;" x1="1016" x2="1016" y1="526.5098" y2="561.5098"/><polygon fill="#181818" points="1012,551.5098,1016,561.5098,1020,551.5098,1016,555.5098" style="stroke:#181818;stroke-width:1.0;"/><line style="stroke:#181818;stroke-width:1.0;" x1="1245" x2="1245" y1="526.5098" y2="561.5098"/><polygon fill="#181818" points="1241,551.5098,1245,561.5098,1249,551.5098,1245,555.5098" style="stroke:#181818;stroke-width:1.0;"/><line style="stroke:#181818;stroke-width:1.0;" x1="1026" x2="1016" y1="469.416" y2="469.416"/><line style="stroke:#181818;stroke-width:1.0;" x1="1016" x2="1016" y1="469.416" y2="491.416"/><polygon fill="#181818" points="1012,481.416,1016,491.416,1020,481.416,1016,485.416" style="stroke:#181818;stroke-width:1.0;"/><line style="stroke:#181818;stroke-width:1.0;" x1="1235" x2="1245" y1="469.416" y2="469.416"/><line style="stroke:#181818;stroke-width:1.0;" x1="1245" x2="1245" y1="469.416" y2="491.416"/><polygon fill="#181818" points="1241,481.416,1245,491.416,1249,481.416,1245,485.416" style="stroke:#181818;stroke-width:1.0;"/><line style="stroke:#181818;stroke-width:1.0;" x1="1130.5" x2="1130.5" y1="422.416" y2="457.416"/><polygon fill="#181818" points="1126.5,447.416,1130.5,457.416,1134.5,447.416,1130.5,451.416" style="stroke:#181818;stroke-width:1.0;"/><line style="stroke:#181818;stroke-width:1.0;" x1="897" x2="803.5" y1="350.2285" y2="350.2285"/><line style="stroke:#181818;stroke-width:1.0;" x1="803.5" x2="803.5" y1="350.2285" y2="372.2285"/><polygon fill="#181818" points="799.5,362.2285,803.5,372.2285,807.5,362.2285,803.5,366.2285" style="stroke:#181818;stroke-width:1.0;"/><line style="stroke:#181818;stroke-width:1.0;" x1="1037" x2="1130.5" y1="350.2285" y2="350.2285"/><line style="stroke:#181818;stroke-width:1.0;" x1="1130.5" x2="1130.5" y1="350.2285" y2="372.2285"/><polygon fill="#181818" points="1126.5,362.2285,1130.5,372.2285,1134.5,362.2285,1130.5,366.2285" style="stroke:#181818;stroke-width:1.0;"/><line style="stroke:#181818;stroke-width:1.0;" x1="1407" x2="1407" y1="237.8926" y2="262.8105"/><polygon fill="#181818" points="1403,252.8105,1407,262.8105,1411,252.8105,1407,256.8105" style="stroke:#181818;stroke-width:1.0;"/><line style="stroke:#181818;stroke-width:1.0;" x1="1456.5" x2="1485.5" y1="225.8926" y2="225.8926"/><polygon fill="#181818" points="1475.5,221.8926,1485.5,225.8926,1475.5,229.8926,1479.5,225.8926" style="stroke:#181818;stroke-width:1.0;"/><line style="stroke:#181818;stroke-width:1.0;" x1="1407" x2="1407" y1="297.9043" y2="333.7754"/><line style="stroke:#181818;stroke-width:1.0;" x1="1407" x2="1623" y1="333.7754" y2="333.7754"/><line style="stroke:#181818;stroke-width:1.0;" x1="1623" x2="1623" y1="333.7754" y2="351.2754"/><polygon fill="#181818" points="1619,341.2754,1623,351.2754,1627,341.2754,1623,345.2754" style="stroke:#181818;stroke-width:1.0;"/><line style="stroke:#181818;stroke-width:1.0;" x1="1407" x2="1407" y1="184.5879" y2="213.8926"/><polygon fill="#181818" points="1403,203.8926,1407,213.8926,1411,203.8926,1407,207.8926" style="stroke:#181818;stroke-width:1.0;"/><line style="stroke:#181818;stroke-width:1.0;" x1="1623" x2="1623" y1="65.0957" y2="85.0957"/><polygon fill="#181818" points="1619,75.0957,1623,85.0957,1627,75.0957,1623,79.0957" style="stroke:#181818;stroke-width:1.0;"/><line style="stroke:#181818;stroke-width:1.0;" x1="1623" x2="1623" y1="375.2754" y2="413.1113"/><polygon fill="#181818" points="1619,403.1113,1623,413.1113,1627,403.1113,1623,407.1113" style="stroke:#181818;stroke-width:1.0;"/><line style="stroke:#181818;stroke-width:1.0;" x1="1623" x2="1623" y1="448.2051" y2="460.2051"/><line style="stroke:#181818;stroke-width:1.0;" x1="1623" x2="1698.5" y1="460.2051" y2="460.2051"/><polygon fill="#181818" points="1694.5,421.7402,1698.5,411.7402,1702.5,421.7402,1698.5,417.7402" style="stroke:#181818;stroke-width:1.0;"/><line style="stroke:#181818;stroke-width:1.0;" x1="1698.5" x2="1698.5" y1="363.2754" y2="460.2051"/><line style="stroke:#181818;stroke-width:1.0;" x1="1698.5" x2="1686.5" y1="363.2754" y2="363.2754"/><polygon fill="#181818" points="1696.5,359.2754,1686.5,363.2754,1696.5,367.2754,1692.5,363.2754" style="stroke:#181818;stroke-width:1.0;"/><line style="stroke:#181818;stroke-width:1.0;" x1="1559.5" x2="1547.5" y1="363.2754" y2="363.2754"/><polygon fill="#181818" points="1543.5,407.7402,1547.5,417.7402,1551.5,407.7402,1547.5,411.7402" style="stroke:#181818;stroke-width:1.0;"/><line style="stroke:#181818;stroke-width:1.0;" x1="1547.5" x2="1547.5" y1="363.2754" y2="472.2051"/><line style="stroke:#181818;stroke-width:1.0;" x1="1547.5" x2="1623" y1="472.2051" y2="472.2051"/><line style="stroke:#181818;stroke-width:1.0;" x1="1623" x2="1623" y1="472.2051" y2="507.2051"/><polygon fill="#181818" points="1619,497.2051,1623,507.2051,1627,497.2051,1623,501.2051" style="stroke:#181818;stroke-width:1.0;"/><line style="stroke:#181818;stroke-width:1.0;" x1="1623" x2="1623" y1="542.2988" y2="577.2988"/><polygon fill="#181818" points="1619,567.2988,1623,577.2988,1627,567.2988,1623,571.2988" style="stroke:#181818;stroke-width:1.0;"/><line style="stroke:#181818;stroke-width:1.0;" x1="1623" x2="1623" y1="612.3926" y2="632.3926"/><polygon fill="#181818" points="1619,622.3926,1623,632.3926,1627,622.3926,1623,626.3926" style="stroke:#181818;stroke-width:1.0;"/><line style="stroke:#181818;stroke-width:1.0;" x1="109.5" x2="109.5" y1="175.2832" y2="189.5879"/><line style="stroke:#181818;stroke-width:1.0;" x1="109.5" x2="324" y1="189.5879" y2="189.5879"/><line style="stroke:#181818;stroke-width:1.0;" x1="324" x2="324" y1="189.5879" y2="204.5879"/><polygon fill="#181818" points="320,194.5879,324,204.5879,328,194.5879,324,198.5879" style="stroke:#181818;stroke-width:1.0;"/><line style="stroke:#181818;stroke-width:1.0;" x1="324" x2="324" y1="309.7754" y2="320.7285"/><line style="stroke:#181818;stroke-width:1.0;" x1="324" x2="967" y1="320.7285" y2="320.7285"/><line style="stroke:#181818;stroke-width:1.0;" x1="967" x2="967" y1="320.7285" y2="338.2285"/><polygon fill="#181818" points="963,328.2285,967,338.2285,971,328.2285,967,332.2285" style="stroke:#181818;stroke-width:1.0;"/><line style="stroke:#181818;stroke-width:1.0;" x1="1623" x2="1623" y1="120.1895" y2="131.9941"/><line style="stroke:#181818;stroke-width:1.0;" x1="1623" x2="1407" y1="131.9941" y2="131.9941"/><line style="stroke:#181818;stroke-width:1.0;" x1="1407" x2="1407" y1="131.9941" y2="149.4941"/><polygon fill="#181818" points="1403,139.4941,1407,149.4941,1411,139.4941,1407,143.4941" style="stroke:#181818;stroke-width:1.0;"/><text fill="#000000" font-family="sans-serif" font-size="18" lengthAdjust="spacing" textLength="77" x="78" y="31.1406">&#1048;&#1089;&#1090;&#1086;&#1095;&#1085;&#1080;&#1082;</text><text fill="#000000" font-family="sans-serif" font-size="18" lengthAdjust="spacing" textLength="35" x="445.5" y="31.1406">&#1055;&#1058;&#1050;</text><text fill="#000000" font-family="sans-serif" font-size="18" lengthAdjust="spacing" textLength="55" x="1084.75" y="31.1406">&#1041;&#1091;&#1092;&#1077;&#1088;</text><text fill="#000000" font-family="sans-serif" font-size="18" lengthAdjust="spacing" textLength="88" x="1580.5" y="31.1406">&#1044;&#1080;&#1089;&#1087;&#1077;&#1090;&#1095;&#1077;&#1088;</text><!--SRC=[hLJ1Rjf043sRhrYfb-QG7o1IU-orzzO74aonWW1XHxbm83XH6mKLLMgLg8UWzWkS52kE0-ONPl-eRsPjmc8KzT03mfxTUVFcpHixmw1tCZZoXefkz9aUKwu_qv9IochEi1yU8pwZt_GJRuSdhPOtGE2RZlGv9Ng4u6blS2p1xvJgCreXF0O27-AqmAuvGR_ZXpN7sV_GzfjDh-lkly5R43O67AtJBIglz8XYkWVEM4yKFL2iftZDTAJeNW4y5O89BNJa0jtmC-cIdD0SloVyk854IJ15HoF6P6OKR-1IUl2FjUckxDZKBPJ0ezzIh-a7y-Aq1Qw8XdOI9M_tLDZskhWxftWFUSwhzusEzsxW8LY7mhdalS0WDw9oZthYCaBJ2nj7RJnvdS03yf8R56m1b75aLhlGKE5Q34qMB9AUw2_y_B6xGwcS5YoFwN2sVGnE-W9tvdggBu7rQ1V2wHMmT_HTw9rXJ3cFoNJBf1vbUalGYlHNIm1fzpyezYnPLRFTl2eaWh3Nb_nkqs_LrlzYRzNurF2x6xwqpLwd6-29y6k7OaHviNLJgJhTuSzVO9J3JPSbAxmefDjWF5qM15SYmCBegRtFfWNJm1RVOebVsCzhACqUoMKDXSKAeSnueQISi-5ivxlslbZMh9fkYSC_l3vhS8eFoZMRFHVSy4lLOboZ6Bp8ONETRt-dZ2uLGnIJBWUzeT5fs-_mtUlre68nF41psCSC90OlFzXQoriemz-PEpGzDdaRqtPDkHA-QAVGNbYRRgIr1ntH4nPO9buj3oUvw-GCJLxjDBHfiiPbbNZYBm00]--></g></svg>